<svg width="25" height="25" viewBox="0 0 25 25" fill="none" xmlns="http://www.w3.org/2000/svg">
<path fill-rule="evenodd" clip-rule="evenodd" d="M1.56251 12.5C1.56251 12.7072 1.64482 12.9059 1.79133 13.0524C1.93784 13.1989 2.13656 13.2812 2.34376 13.2812H20.7703L15.8531 18.1969C15.7805 18.2695 15.7229 18.3557 15.6836 18.4506C15.6443 18.5455 15.624 18.6473 15.624 18.75C15.624 18.8527 15.6443 18.9544 15.6836 19.0493C15.7229 19.1442 15.7805 19.2305 15.8531 19.3031C15.9258 19.3758 16.012 19.4334 16.1069 19.4727C16.2018 19.512 16.3035 19.5322 16.4063 19.5322C16.509 19.5322 16.6107 19.512 16.7056 19.4727C16.8005 19.4334 16.8867 19.3758 16.9594 19.3031L23.2094 13.0531C23.2821 12.9805 23.3399 12.8943 23.3792 12.7994C23.4186 12.7045 23.4389 12.6028 23.4389 12.5C23.4389 12.3972 23.4186 12.2955 23.3792 12.2006C23.3399 12.1056 23.2821 12.0194 23.2094 11.9469L16.9594 5.69687C16.8867 5.62423 16.8005 5.56661 16.7056 5.5273C16.6107 5.48799 16.509 5.46775 16.4063 5.46775C16.3035 5.46775 16.2018 5.48799 16.1069 5.5273C16.012 5.56661 15.9258 5.62423 15.8531 5.69687C15.7805 5.7695 15.7229 5.85574 15.6836 5.95064C15.6443 6.04555 15.624 6.14727 15.624 6.24999C15.624 6.35271 15.6443 6.45443 15.6836 6.54934C15.7229 6.64425 15.7805 6.73048 15.8531 6.80311L20.7703 11.7187H2.34376C2.13656 11.7187 1.93784 11.801 1.79133 11.9476C1.64482 12.0941 1.56251 12.2928 1.56251 12.5Z" fill="#8A8686"/>
</svg>
