<svg width="50" height="50" viewBox="0 0 50 50" fill="none" xmlns="http://www.w3.org/2000/svg">
<path d="M6.76787 4.95009L44.3929 22.9465C44.7727 23.1283 45.0933 23.4138 45.3178 23.7701C45.5422 24.1264 45.6613 24.5388 45.6613 24.9599C45.6613 25.381 45.5422 25.7935 45.3178 26.1497C45.0933 26.506 44.7727 26.7915 44.3929 26.9733L6.76787 44.9697C6.382 45.1547 5.9511 45.2248 5.52649 45.1718C5.10189 45.1188 4.70147 44.9448 4.37292 44.6707C4.04438 44.3965 3.80157 44.0337 3.6734 43.6254C3.54523 43.2172 3.53712 42.7807 3.65001 42.3679L7.4143 28.5679C7.46038 28.3988 7.55522 28.247 7.687 28.1314C7.81879 28.0158 7.98168 27.9416 8.15537 27.9179L26.3875 25.4412C26.4635 25.4305 26.5355 25.4004 26.5965 25.3538C26.6575 25.3072 26.7055 25.2456 26.7357 25.1751L26.7679 25.0626C26.782 24.9629 26.7619 24.8614 26.711 24.7745C26.6601 24.6876 26.5814 24.6205 26.4875 24.584L26.3893 24.5572L8.17501 22.0822C8.00164 22.0583 7.83914 21.9839 7.7077 21.8683C7.57626 21.7528 7.48169 21.6011 7.43573 21.4322L3.65001 7.55187C3.53712 7.13913 3.54523 6.70263 3.6734 6.29437C3.80157 5.88611 4.04438 5.5233 4.37292 5.24913C4.70147 4.97497 5.10189 4.80103 5.52649 4.74801C5.9511 4.69499 6.382 4.76513 6.76787 4.95009Z" fill="#7F9E23"/>
</svg>
