<svg width="45" height="45" viewBox="0 0 45 45" fill="none" xmlns="http://www.w3.org/2000/svg">
<path d="M14.5 8C14.5 9.39625 13.3962 10.5 12 10.5H10.75C8 10.5 5.75 12.75 5.75 15.5C5.75 18.25 8 20.5 10.75 20.5H12.195C12.0656 21.1166 12.0003 21.745 12 22.375V38H14.5V22.375C14.5 18.5863 17.5863 15.5 21.375 15.5C22.5025 15.5 23.5625 15.7587 24.5 16.2425V13.5475C23.4973 13.1877 22.4403 13.0026 21.375 13C17.7912 13 14.6712 15.0362 13.0938 18H10.75C9.35375 18 8.25 16.8962 8.25 15.5C8.25 14.1038 9.35375 13 10.75 13H12C14.75 13 17 10.75 17 8H14.5ZM25.75 10.6175V18.625C25.75 21.8125 28.645 24.25 32 24.25C35.355 24.25 38.25 21.8125 38.25 18.625V10.6175L36.2963 11.9837L34.2263 13.43C33.5138 13.1762 32.81 12.8825 32 12.8825C31.19 12.8825 30.4875 13.1762 29.7737 13.43L27.7025 11.985L25.75 10.6175ZM32 15.3825C32.7225 15.3825 33.3875 15.5575 33.9537 15.8513L34.6163 16.2025L35.2413 15.7737L35.75 15.4225V18.625C35.75 20.27 34.1675 21.75 32 21.75C29.8325 21.75 28.25 20.27 28.25 18.625V15.4213L28.7575 15.7737L29.3825 16.2037L30.0475 15.8513C30.6514 15.541 31.321 15.3802 32 15.3825ZM23.25 21.75C19.8025 21.75 17 24.5525 17 28V38H19.5V28C19.5 25.935 21.185 24.25 23.25 24.25C25.315 24.25 27 25.935 27 28V38H29.5V28C29.5 26.7938 29.1587 25.675 28.5625 24.7188C27.3811 24.1605 26.3698 23.2976 25.6325 22.2188C24.8767 21.9081 24.0672 21.7489 23.25 21.75ZM34.5 25.11C33.6923 25.3702 32.8486 25.5018 32 25.5V38H34.5V25.11Z" fill="#7F9E23"/>
<path d="M43.5 22.5C43.5 34.098 34.098 43.5 22.5 43.5C10.902 43.5 1.5 34.098 1.5 22.5C1.5 10.902 10.902 1.5 22.5 1.5C34.098 1.5 43.5 10.902 43.5 22.5Z" fill="#C4C4C4" fill-opacity="0.01" stroke="#7F9E23" stroke-width="3"/>
</svg>
