<svg width="50" height="50" viewBox="0 0 50 50" fill="none" xmlns="http://www.w3.org/2000/svg">
<path d="M34.3209 11.2667L38.7334 15.6771L34.3209 11.2667ZM37.1584 7.38129L25.2272 19.3125C24.6107 19.9282 24.1902 20.7125 24.0188 21.5667L22.9167 27.0834L28.4334 25.9792C29.2876 25.8084 30.0709 25.3896 30.6876 24.7729L42.6188 12.8417C42.9774 12.4832 43.2618 12.0575 43.4558 11.5891C43.6498 11.1206 43.7497 10.6185 43.7497 10.1115C43.7497 9.60445 43.6498 9.10237 43.4558 8.63392C43.2618 8.16547 42.9774 7.73982 42.6188 7.38129C42.2603 7.02275 41.8346 6.73834 41.3662 6.54431C40.8977 6.35027 40.3957 6.2504 39.8886 6.2504C39.3816 6.2504 38.8795 6.35027 38.411 6.54431C37.9426 6.73834 37.5169 7.02275 37.1584 7.38129V7.38129Z" stroke="#7F9E23" stroke-width="2.08333" stroke-linecap="round" stroke-linejoin="round"/>
<path d="M39.5834 31.2501V37.5001C39.5834 38.6051 39.1444 39.665 38.363 40.4464C37.5816 41.2278 36.5218 41.6667 35.4167 41.6667H12.5C11.395 41.6667 10.3352 41.2278 9.55376 40.4464C8.77236 39.665 8.33337 38.6051 8.33337 37.5001V14.5834C8.33337 13.4783 8.77236 12.4185 9.55376 11.6371C10.3352 10.8557 11.395 10.4167 12.5 10.4167H18.75" stroke="#7F9E23" stroke-width="2.08333" stroke-linecap="round" stroke-linejoin="round"/>
</svg>
