<svg width="24" height="25" viewBox="0 0 24 25" fill="none" xmlns="http://www.w3.org/2000/svg">
<path fill-rule="evenodd" clip-rule="evenodd" d="M7.5998 8.37634H6.0208C5.75276 8.38073 5.48655 8.32953 5.23769 8.22571C4.98883 8.1219 4.76228 7.96755 4.57124 7.77166C4.38019 7.57576 4.22847 7.34223 4.12491 7.08466C4.02135 6.82709 3.96801 6.55063 3.96801 6.27139C3.96801 5.99214 4.02135 5.71568 4.12491 5.45812C4.22847 5.20055 4.38019 4.96702 4.57124 4.77112C4.76228 4.57522 4.98883 4.42087 5.23769 4.31706C5.48655 4.21325 5.75276 4.16205 6.0208 4.16644H8.9788C9.2442 4.16644 9.50701 4.22089 9.75221 4.32669C9.9974 4.43249 10.2202 4.58755 10.4079 4.78304C10.5955 4.97853 10.7444 5.2106 10.846 5.46602C10.9475 5.72143 10.9998 5.99519 10.9998 6.27165C10.9998 7.61696 10.0958 8.51279 8.8653 9.13102C8.4293 9.34977 7.9873 9.51383 7.5998 9.63363V8.37634ZM6.5998 10.9373C6.5998 10.9373 7.0078 10.88 7.5998 10.7154C9.1608 10.2815 11.9998 9.10394 11.9998 6.27165C11.9998 5.85839 11.9217 5.44919 11.7698 5.06739C11.618 4.68559 11.3955 4.33869 11.115 4.04647C10.8344 3.75426 10.5014 3.52246 10.1349 3.36431C9.76836 3.20617 9.37553 3.12477 8.9788 3.12477H6.0208C5.62084 3.11941 5.22384 3.19684 4.85283 3.35257C4.48183 3.5083 4.14421 3.73922 3.85955 4.03194C3.5749 4.32466 3.34889 4.67336 3.19463 5.05779C3.04037 5.44221 2.96094 5.85473 2.96094 6.27139C2.96094 6.68805 3.04037 7.10056 3.19463 7.48499C3.34889 7.86942 3.5749 8.21811 3.85955 8.51083C4.14421 8.80355 4.48183 9.03448 4.85283 9.1902C5.22384 9.34593 5.62084 9.42336 6.0208 9.418H6.5998V10.9373ZM8.2498 14.5831C8.2498 14.8594 8.14445 15.1243 7.95691 15.3197C7.76937 15.515 7.51502 15.6248 7.2498 15.6248C6.98459 15.6248 6.73023 15.515 6.5427 15.3197C6.35516 15.1243 6.2498 14.8594 6.2498 14.5831C6.2498 14.3068 6.35516 14.0419 6.5427 13.8465C6.73023 13.6512 6.98459 13.5414 7.2498 13.5414C7.51502 13.5414 7.76937 13.6512 7.95691 13.8465C8.14445 14.0419 8.2498 14.3068 8.2498 14.5831ZM7.2498 16.6664C8.3548 16.6664 9.2498 15.7341 9.2498 14.5831C9.2498 13.4321 8.3548 12.4998 7.2498 12.4998C6.1448 12.4998 5.2498 13.4321 5.2498 14.5831C5.2498 15.7341 6.1448 16.6664 7.2498 16.6664ZM3.9998 20.8331V19.9305C3.9998 19.9253 3.9998 19.9149 4.0128 19.8888C4.0288 19.8565 4.0653 19.7998 4.1443 19.7237C4.3088 19.5649 4.5843 19.3914 4.9658 19.2315C5.7308 18.9112 6.6658 18.7498 7.2498 18.7498C7.8333 18.7498 8.7693 18.9112 9.5338 19.2315C9.9148 19.3914 10.1908 19.5649 10.3553 19.7237C10.4343 19.7998 10.4708 19.8565 10.4868 19.8883C10.4998 19.9144 10.4998 19.9258 10.4998 19.93V20.8331H3.9998ZM2.9998 19.9305C2.9998 18.4524 5.8313 17.7081 7.2498 17.7081C8.6683 17.7081 11.4998 18.4529 11.4998 19.9305V21.8748H2.9998V19.9305ZM16.7498 15.6248C17.015 15.6248 17.2694 15.515 17.4569 15.3197C17.6444 15.1243 17.7498 14.8594 17.7498 14.5831C17.7498 14.3068 17.6444 14.0419 17.4569 13.8465C17.2694 13.6512 17.015 13.5414 16.7498 13.5414C16.4846 13.5414 16.2302 13.6512 16.0427 13.8465C15.8552 14.0419 15.7498 14.3068 15.7498 14.5831C15.7498 14.8594 15.8552 15.1243 16.0427 15.3197C16.2302 15.515 16.4846 15.6248 16.7498 15.6248ZM18.7498 14.5831C18.7498 15.7341 17.8548 16.6664 16.7498 16.6664C15.6448 16.6664 14.7498 15.7341 14.7498 14.5831C14.7498 13.4321 15.6448 12.4998 16.7498 12.4998C17.8548 12.4998 18.7498 13.4321 18.7498 14.5831ZM13.4998 20.8331V19.9305C13.4998 19.9253 13.4998 19.9149 13.5128 19.8888C13.5288 19.8565 13.5653 19.7998 13.6438 19.7237C13.8088 19.5649 14.0848 19.3914 14.4658 19.2315C15.2308 18.9112 16.1658 18.7498 16.7498 18.7498C17.3333 18.7498 18.2693 18.9112 19.0338 19.2315C19.4148 19.3914 19.6908 19.5649 19.8558 19.7237C19.9343 19.7998 19.9708 19.8565 19.9868 19.8883C19.9998 19.9144 19.9998 19.9258 19.9998 19.93V20.8331H13.4998ZM12.4998 19.9305C12.4998 18.4524 15.3313 17.7081 16.7498 17.7081C18.1683 17.7081 20.9998 18.4529 20.9998 19.9305V21.8748H12.4998V19.9305ZM17.9788 8.89717H16.7998V10.1019C16.4823 9.98374 16.1738 9.84098 15.8768 9.67477C14.8348 9.08571 13.9998 8.20186 13.9998 6.79196C13.9999 6.23371 14.2129 5.69838 14.5919 5.30369C14.9709 4.909 15.4849 4.68727 16.0208 4.68727H17.9788C18.2468 4.68288 18.5131 4.73408 18.7619 4.83789C19.0108 4.9417 19.2373 5.09605 19.4284 5.29195C19.6194 5.48785 19.7711 5.72138 19.8747 5.97895C19.9783 6.23652 20.0316 6.51297 20.0316 6.79222C20.0316 7.07147 19.9783 7.34792 19.8747 7.60549C19.7711 7.86306 19.6194 8.09659 19.4284 8.29249C19.2373 8.48839 19.0108 8.64274 18.7619 8.74655C18.5131 8.85036 18.2468 8.90156 17.9788 8.89717ZM16.7998 11.2008C17.3848 11.3925 17.7998 11.4581 17.7998 11.4581V9.93884H17.9788C18.3788 9.9442 18.7758 9.86677 19.1468 9.71104C19.5178 9.55531 19.8554 9.32439 20.1401 9.03166C20.4247 8.73894 20.6507 8.39025 20.805 8.00582C20.9592 7.62139 21.0387 7.20888 21.0387 6.79222C21.0387 6.37556 20.9592 5.96305 20.805 5.57862C20.6507 5.19419 20.4247 4.8455 20.1401 4.55278C19.8554 4.26005 19.5178 4.02913 19.1468 3.8734C18.7758 3.71768 18.3788 3.64025 17.9788 3.64561H16.0208C15.2196 3.64561 14.4512 3.97715 13.8846 4.5673C13.3181 5.15746 12.9998 5.95788 12.9998 6.79248C12.9998 9.55081 15.3933 10.7404 16.7998 11.2008Z" fill="#7F9E23"/>
</svg>
