<svg width="17" height="17" viewBox="0 0 17 17" fill="none" xmlns="http://www.w3.org/2000/svg">
<path d="M8.5 0C3.71875 0 0 3.71875 0 8.5C0 14.0781 5.04688 16.4688 5.84375 16.4688C6.375 16.4688 6.375 16.2031 6.375 15.9375V14.6094C4.51562 15.1406 3.71875 14.0781 3.45312 13.2812C3.45312 13.2812 3.45312 13.0156 2.92188 12.4844C2.65625 12.2188 1.59375 11.6875 2.65625 11.6875C3.45312 11.6875 3.98438 12.75 3.98438 12.75C4.78125 13.8125 5.84375 13.5469 6.375 13.2812C6.375 12.75 6.90625 12.2188 6.90625 12.2188C4.78125 11.9531 3.1875 11.1562 3.1875 8.23438C3.1875 7.17188 3.45312 6.375 3.98438 5.84375C3.98438 5.84375 3.45312 4.78125 3.98438 3.45312C3.98438 3.45312 5.3125 3.45312 6.375 4.51562C7.17188 3.98438 9.82812 3.98438 10.625 4.51562C11.6875 3.45312 13.0156 3.45312 13.0156 3.45312C13.5469 5.3125 13.0156 5.84375 13.0156 5.84375C13.5469 6.375 13.8125 7.17188 13.8125 8.23438C13.8125 11.1562 11.9531 11.9531 10.0938 12.2188C10.3594 12.4844 10.625 13.0156 10.625 13.8125V15.9375C10.625 16.2031 10.625 16.4688 11.1562 16.4688C11.9531 16.4688 17 14.0781 17 8.5C17 3.71875 13.2812 0 8.5 0Z" fill="black"/>
</svg>
