<svg width="29" height="29" viewBox="0 0 29 29" fill="none" xmlns="http://www.w3.org/2000/svg">
<path d="M19.9895 9.70034C19.9617 11.5165 19.3575 13.9754 16.5252 14.9288C17.4121 12.819 17.5474 10.7999 16.9191 8.91251C16.0793 6.37863 13.2772 4.39938 11.4127 3.32155C10.7759 2.9518 9.95908 3.41097 9.97117 4.14684C9.99533 5.49051 9.58692 7.45405 7.60404 9.43692C4.96262 12.0759 3.625 14.8031 3.625 17.5412C3.625 20.9789 6.04167 25.3748 10.875 25.3748C5.99212 20.492 9.66667 16.3329 9.66667 16.3329C10.6889 23.479 15.6938 25.3748 18.125 25.3748C20.1925 25.3748 24.1667 23.8644 24.1667 17.5835C24.1667 13.7978 22.5572 10.9244 21.2848 9.24722C20.8655 8.6938 19.9991 9.00797 19.9895 9.70034Z" fill="#7F9E23"/>
</svg>
