<svg width="42" height="42" viewBox="0 0 42 42" fill="none" xmlns="http://www.w3.org/2000/svg">
<path d="M37.9156 4.53629C36.9382 3.41518 35.7778 2.52584 34.5005 1.91907C33.2233 1.3123 31.8543 1 30.4718 1C29.0892 1 27.7202 1.3123 26.443 1.91907C25.1657 2.52584 24.0053 3.41518 23.0279 4.53629L20.9995 6.86189L18.9711 4.53629C16.9968 2.27279 14.3192 1.00117 11.5272 1.00117C8.73523 1.00117 6.05759 2.27279 4.08335 4.53629C2.10911 6.79979 1 9.86975 1 13.0708C1 16.2719 2.10911 19.3418 4.08335 21.6053L6.11176 23.9309L20.9995 41L35.8872 23.9309L37.9156 21.6053C38.8935 20.4848 39.6691 19.1543 40.1984 17.6899C40.7276 16.2255 41 14.6559 41 13.0708C41 11.4857 40.7276 9.91612 40.1984 8.45174C39.6691 6.98736 38.8935 5.65687 37.9156 4.53629V4.53629Z" stroke="black" stroke-width="2" stroke-linecap="round" stroke-linejoin="round"/>
</svg>
