<svg width="50" height="50" viewBox="0 0 50 50" fill="none" xmlns="http://www.w3.org/2000/svg">
<path d="M25.0001 35.4167L27.0834 31.25V20.5375C30.6688 19.6063 33.3334 16.3708 33.3334 12.5C33.3334 7.90417 29.5959 4.16667 25.0001 4.16667C20.4042 4.16667 16.6667 7.90417 16.6667 12.5C16.6667 16.3708 19.3313 19.6063 22.9167 20.5375V31.25L25.0001 35.4167ZM20.8334 12.5C20.8334 10.2021 22.7022 8.33334 25.0001 8.33334C27.298 8.33334 29.1667 10.2021 29.1667 12.5C29.1667 14.7979 27.298 16.6667 25.0001 16.6667C22.7022 16.6667 20.8334 14.7979 20.8334 12.5Z" fill="#7F9E23"/>
<path d="M33.8897 22.0062L32.7792 26.0229C38.1772 27.5146 41.6667 30.3833 41.6667 33.3333C41.6667 37.275 34.823 41.6666 25.0001 41.6666C15.1772 41.6666 8.33341 37.275 8.33341 33.3333C8.33341 30.3833 11.823 27.5146 17.223 26.0208L16.1126 22.0042C8.74383 24.0417 4.16675 28.3812 4.16675 33.3333C4.16675 40.3416 13.3188 45.8333 25.0001 45.8333C36.6813 45.8333 45.8334 40.3416 45.8334 33.3333C45.8334 28.3812 41.2563 24.0416 33.8897 22.0062Z" fill="#7F9E23"/>
</svg>
