<svg width="10" height="10" viewBox="0 0 10 10" fill="none" xmlns="http://www.w3.org/2000/svg">
<path d="M5.00016 7.0835L5.41683 6.25016V4.10766C6.13391 3.92141 6.66683 3.27433 6.66683 2.50016C6.66683 1.581 5.91933 0.833496 5.00016 0.833496C4.081 0.833496 3.3335 1.581 3.3335 2.50016C3.3335 3.27433 3.86641 3.92141 4.5835 4.10766V6.25016L5.00016 7.0835ZM4.16683 2.50016C4.16683 2.04058 4.54058 1.66683 5.00016 1.66683C5.45975 1.66683 5.83349 2.04058 5.83349 2.50016C5.83349 2.95975 5.45975 3.3335 5.00016 3.3335C4.54058 3.3335 4.16683 2.95975 4.16683 2.50016Z" fill="#7F9E23"/>
<path d="M6.77808 4.4013L6.556 5.20463C7.63558 5.50296 8.3335 6.07671 8.3335 6.66671C8.3335 7.45504 6.96475 8.33338 5.00016 8.33338C3.03558 8.33338 1.66683 7.45504 1.66683 6.66671C1.66683 6.07671 2.36475 5.50296 3.44475 5.20421L3.22266 4.40088C1.74891 4.80838 0.833496 5.6763 0.833496 6.66671C0.833496 8.06838 2.66391 9.16671 5.00016 9.16671C7.33641 9.16671 9.16683 8.06838 9.16683 6.66671C9.16683 5.6763 8.25141 4.80838 6.77808 4.4013Z" fill="#7F9E23"/>
</svg>
