<svg width="122" height="53" viewBox="0 0 122 53" fill="none" xmlns="http://www.w3.org/2000/svg">
<g filter="url(#filter0_d)">
<path d="M8.15427 15.75C7.5098 20.1492 7.33792 22.5859 7.65427 26.8333C8.1798 29.2877 8.56291 30.3484 9.57094 31.0833C11.995 31.1141 13.0161 31.1033 14.7596 31.0849L14.9043 31.0833H23.1543C26.4895 31.1965 28.253 31.1412 30.9876 30.5833C35.1808 30.2391 36.1692 30.1342 38.4043 29.9167C40.0421 29.6245 40.4456 29.1279 40.4043 27.75C40.4153 26.3591 40.282 24.9356 39.9043 21.75C39.5854 19.0025 39.4015 17.4594 38.4043 14.3333C38.0616 12.7655 37.6747 11.9727 35.9876 11C33.8526 10.7257 32.6085 10.8158 30.3209 11.3333C28.5191 11.9892 28.4869 12.674 28.2376 13.8333C28.043 12.1172 27.8917 11.1666 26.9043 9.66667C25.9177 7.92699 24.9382 7.49024 22.2376 7.91667C20.7276 8.09297 19.9667 8.32603 18.9876 9.33333L18.4043 12C17.9626 9.3806 17.4421 8.02351 16.1543 5.75C15.4291 4.59337 14.948 4.08548 13.6543 4C11.9916 4.14703 11.452 4.72217 10.4918 5.74552L10.4876 5.75C9.09409 9.89623 8.74494 12.0049 8.15427 15.75Z" fill="url(#paint0_linear)" shape-rendering="crispEdges"/>
<path d="M8.15427 15.75C7.5098 20.1492 7.33792 22.5859 7.65427 26.8333C8.1798 29.2877 8.56291 30.3484 9.57094 31.0833C11.995 31.1141 13.0161 31.1033 14.7596 31.0849L14.9043 31.0833H23.1543C26.4895 31.1965 28.253 31.1412 30.9876 30.5833C35.1808 30.2391 36.1692 30.1342 38.4043 29.9167C40.0421 29.6245 40.4456 29.1279 40.4043 27.75C40.4153 26.3591 40.282 24.9356 39.9043 21.75C39.5854 19.0025 39.4015 17.4594 38.4043 14.3333C38.0616 12.7655 37.6747 11.9727 35.9876 11C33.8526 10.7257 32.6085 10.8158 30.3209 11.3333C28.5191 11.9892 28.4869 12.674 28.2376 13.8333C28.043 12.1172 27.8917 11.1666 26.9043 9.66667C25.9177 7.92699 24.9382 7.49024 22.2376 7.91667C20.7276 8.09297 19.9667 8.32603 18.9876 9.33333L18.4043 12C17.9626 9.3806 17.4421 8.02351 16.1543 5.75C15.4291 4.59337 14.948 4.08548 13.6543 4C11.9916 4.14703 11.452 4.72217 10.4918 5.74552L10.4876 5.75C9.09409 9.89623 8.74494 12.0049 8.15427 15.75Z" stroke="#445513" stroke-width="0.5" shape-rendering="crispEdges"/>
</g>
<g filter="url(#filter1_d)">
<path d="M28.0572 23.9728L23.1706 24.9533L23.5587 26.0196L28.7404 24.5538L28.0572 23.9728Z" fill="#815F30"/>
<path d="M28.0572 23.9728L23.1706 24.9533L23.5587 26.0196L28.7404 24.5538L28.0572 23.9728Z" stroke="#473317" stroke-width="0.5"/>
</g>
<g filter="url(#filter2_d)">
<path d="M27.9374 37.2656L20.792 32.3442L20.4904 33.9316L28.3909 38.7046L27.9374 37.2656Z" fill="#815F30"/>
<path d="M27.9374 37.2656L20.792 32.3442L20.4904 33.9316L28.3909 38.7046L27.9374 37.2656Z" stroke="#473317" stroke-width="0.5"/>
</g>
<g filter="url(#filter3_d)">
<path d="M31.1542 26L25.3333 27.1111L26.4975 27.6667H29.2139L31.8333 27.1111L31.1542 26Z" fill="#815F30"/>
<path d="M31.1542 26L25.3333 27.1111L26.4975 27.6667H29.2139L31.8333 27.1111L31.1542 26Z" stroke="#473317" stroke-width="0.5"/>
</g>
<g filter="url(#filter4_d)">
<path d="M23.1842 29.75V28.3333L29.1721 29.1991L29.6895 29.9861V30.4583L27.1761 30.2222L23.1842 29.75Z" fill="#815F30"/>
<path d="M22.6667 31.875L22.9624 31.1666H25.2541L31.8334 32.1111L31.5377 34H29.1721L22.6667 31.875Z" fill="#815F30"/>
<path d="M23.1842 29.75V28.3333L29.1721 29.1991L29.6895 29.9861V30.4583L27.1761 30.2222L23.1842 29.75Z" stroke="#473317" stroke-width="0.5"/>
<path d="M22.6667 31.875L22.9624 31.1666H25.2541L31.8334 32.1111L31.5377 34H29.1721L22.6667 31.875Z" stroke="#473317" stroke-width="0.5"/>
</g>
<g filter="url(#filter5_d)">
<path d="M15 2.16669C15 2.99511 14.3284 3.66669 13.5 3.66669C12.6716 3.66669 12 2.99511 12 2.16669C12 1.33826 12.6716 0.666687 13.5 0.666687C14.3284 0.666687 15 1.33826 15 2.16669Z" fill="#EF727F"/>
<path d="M14.75 2.16669C14.75 2.85704 14.1904 3.41669 13.5 3.41669C12.8096 3.41669 12.25 2.85704 12.25 2.16669C12.25 1.47633 12.8096 0.916687 13.5 0.916687C14.1904 0.916687 14.75 1.47633 14.75 2.16669Z" stroke="black" stroke-width="0.5"/>
</g>
<g filter="url(#filter6_d)">
<line x1="13.5833" y1="3.41669" x2="13.5833" y2="5.91669" stroke="black" stroke-width="0.5"/>
</g>
<g filter="url(#filter7_d)">
<path d="M20.5246 36.1858L14.8746 34.2159L13.4836 34.9443L17.0624 36.726L21.4576 38.6517L21.7149 37.1923L20.5246 36.1858Z" fill="#815F30"/>
<path d="M19.5558 41.6799L24.1853 43.4699L24.0037 44.5L23.3914 44.392L20.5948 43.5449L16.6644 41.9667L12.9835 40.167L15.0322 39.289L15.9467 40.0699L19.5558 41.6799Z" fill="#815F30"/>
<path d="M20.5246 36.1858L14.8746 34.2159L13.4836 34.9443L17.0624 36.726L21.4576 38.6517L21.7149 37.1923L20.5246 36.1858Z" stroke="#473317" stroke-width="0.5"/>
<path d="M19.5558 41.6799L24.1853 43.4699L24.0037 44.5L23.3914 44.392L20.5948 43.5449L16.6644 41.9667L12.9835 40.167L15.0322 39.289L15.9467 40.0699L19.5558 41.6799Z" stroke="#473317" stroke-width="0.5"/>
</g>
<g filter="url(#filter8_d)">
<rect x="45" y="7" width="69" height="22" rx="10" fill="#F4F5F4"/>
</g>
<path d="M58.254 21.552L56.07 12.802L57.344 12.48L58.982 18.962L60.872 12.956H62.132L63.84 18.486L66.122 12.34L67.354 12.802L64.4 20.768L63.154 20.726L61.502 15.378L59.542 21.58L58.254 21.552ZM74.3488 21.524L74.0968 21.23L68.3148 22.154L67.5588 21.356L68.3708 18.15L69.0008 17.646H73.4248L73.1308 15.462L68.0908 16.694L67.7688 15.42L73.5228 14.006L74.3348 14.566L75.1188 20.376L76.0988 20.656L75.7488 21.916L74.3488 21.524ZM73.7328 19.942L73.6068 18.976H69.5188L69.0848 20.684L73.7328 19.942ZM81.8484 16.68L78.8664 17.156L78.2504 21.286L76.9344 21.09L77.6344 16.484L78.1804 15.924L82.3804 15.266L83.1504 15.882L83.4164 21.384L82.0864 21.454L81.8484 16.68ZM84.823 21.132L85.467 16.302L86.223 15.742L90.339 16.4L90.115 13.264L91.445 13.18L91.935 20.544L91.347 21.244L85.537 21.874L84.823 21.132ZM86.237 20.474L90.577 20.012L90.423 17.744L86.685 17.142L86.237 20.474ZM93.8726 21.16L93.3406 20.418L94.0126 15.434L94.6006 14.874L98.7026 14.538L99.3466 14.888L100.537 17.24L100.075 18.178L95.7206 19.088L95.4406 17.814L98.9546 17.058L98.3666 15.896L95.2306 16.134L94.7266 19.984L99.5426 20.88L99.2906 22.168L93.8726 21.16ZM101.52 14.552L102.836 14.51L102.878 16.232L106.07 14.72L106.63 15.938L102.92 17.674L103.06 21.902L101.73 21.93L101.52 14.552Z" fill="black"/>
<g filter="url(#filter9_d)">
<rect x="72" y="26" width="48" height="18" rx="9" fill="#F4F5F4"/>
</g>
<path d="M89.75 32.58L87.216 37.06L86.04 37.004L84.136 32.86L82.932 39.594L81.63 39.356L83.212 30.55L84.444 30.396L86.712 35.282L89.512 30.34L90.73 30.55L92.326 39.356L91.024 39.594L89.75 32.58ZM100.579 39.524L100.327 39.23L94.5452 40.154L93.7892 39.356L94.6012 36.15L95.2312 35.646H99.6552L99.3612 33.462L94.3212 34.694L93.9992 33.42L99.7532 32.006L100.565 32.566L101.349 38.376L102.329 38.656L101.979 39.916L100.579 39.524ZM99.9632 37.942L99.8372 36.976H95.7492L95.3152 38.684L99.9632 37.942ZM103.165 40.686L103.655 32.412L104.439 31.796L108.807 32.692L109.311 33.266L109.759 36.752L109.241 37.494L105.489 38.278L105.209 37.004L108.387 36.318L108.065 33.896L104.915 33.252L104.481 40.756L103.165 40.686Z" fill="black"/>
<defs>
<filter id="filter0_d" x="3.25" y="3.74927" width="41.4071" height="35.6323" filterUnits="userSpaceOnUse" color-interpolation-filters="sRGB">
<feFlood flood-opacity="0" result="BackgroundImageFix"/>
<feColorMatrix in="SourceAlpha" type="matrix" values="0 0 0 0 0 0 0 0 0 0 0 0 0 0 0 0 0 0 127 0" result="hardAlpha"/>
<feOffset dy="4"/>
<feGaussianBlur stdDeviation="2"/>
<feComposite in2="hardAlpha" operator="out"/>
<feColorMatrix type="matrix" values="0 0 0 0 0 0 0 0 0 0 0 0 0 0 0 0 0 0 0.25 0"/>
<feBlend mode="normal" in2="BackgroundImageFix" result="effect1_dropShadow"/>
<feBlend mode="normal" in="SourceGraphic" in2="effect1_dropShadow" result="shape"/>
</filter>
<filter id="filter1_d" x="18.8362" y="23.7038" width="14.423" height="10.6195" filterUnits="userSpaceOnUse" color-interpolation-filters="sRGB">
<feFlood flood-opacity="0" result="BackgroundImageFix"/>
<feColorMatrix in="SourceAlpha" type="matrix" values="0 0 0 0 0 0 0 0 0 0 0 0 0 0 0 0 0 0 127 0" result="hardAlpha"/>
<feOffset dy="4"/>
<feGaussianBlur stdDeviation="2"/>
<feComposite in2="hardAlpha" operator="out"/>
<feColorMatrix type="matrix" values="0 0 0 0 0 0 0 0 0 0 0 0 0 0 0 0 0 0 0.25 0"/>
<feBlend mode="normal" in2="BackgroundImageFix" result="effect1_dropShadow"/>
<feBlend mode="normal" in="SourceGraphic" in2="effect1_dropShadow" result="shape"/>
</filter>
<filter id="filter2_d" x="16.2123" y="31.9208" width="16.616" height="15.3402" filterUnits="userSpaceOnUse" color-interpolation-filters="sRGB">
<feFlood flood-opacity="0" result="BackgroundImageFix"/>
<feColorMatrix in="SourceAlpha" type="matrix" values="0 0 0 0 0 0 0 0 0 0 0 0 0 0 0 0 0 0 127 0" result="hardAlpha"/>
<feOffset dy="4"/>
<feGaussianBlur stdDeviation="2"/>
<feComposite in2="hardAlpha" operator="out"/>
<feColorMatrix type="matrix" values="0 0 0 0 0 0 0 0 0 0 0 0 0 0 0 0 0 0 0.25 0"/>
<feBlend mode="normal" in2="BackgroundImageFix" result="effect1_dropShadow"/>
<feBlend mode="normal" in="SourceGraphic" in2="effect1_dropShadow" result="shape"/>
</filter>
<filter id="filter3_d" x="20.5377" y="25.722" width="15.6932" height="10.1947" filterUnits="userSpaceOnUse" color-interpolation-filters="sRGB">
<feFlood flood-opacity="0" result="BackgroundImageFix"/>
<feColorMatrix in="SourceAlpha" type="matrix" values="0 0 0 0 0 0 0 0 0 0 0 0 0 0 0 0 0 0 127 0" result="hardAlpha"/>
<feOffset dy="4"/>
<feGaussianBlur stdDeviation="2"/>
<feComposite in2="hardAlpha" operator="out"/>
<feColorMatrix type="matrix" values="0 0 0 0 0 0 0 0 0 0 0 0 0 0 0 0 0 0 0.25 0"/>
<feBlend mode="normal" in2="BackgroundImageFix" result="effect1_dropShadow"/>
<feBlend mode="normal" in="SourceGraphic" in2="effect1_dropShadow" result="shape"/>
</filter>
<filter id="filter4_d" x="18.3317" y="28.0446" width="17.7878" height="14.2054" filterUnits="userSpaceOnUse" color-interpolation-filters="sRGB">
<feFlood flood-opacity="0" result="BackgroundImageFix"/>
<feColorMatrix in="SourceAlpha" type="matrix" values="0 0 0 0 0 0 0 0 0 0 0 0 0 0 0 0 0 0 127 0" result="hardAlpha"/>
<feOffset dy="4"/>
<feGaussianBlur stdDeviation="2"/>
<feComposite in2="hardAlpha" operator="out"/>
<feColorMatrix type="matrix" values="0 0 0 0 0 0 0 0 0 0 0 0 0 0 0 0 0 0 0.25 0"/>
<feBlend mode="normal" in2="BackgroundImageFix" result="effect1_dropShadow"/>
<feBlend mode="normal" in="SourceGraphic" in2="effect1_dropShadow" result="shape"/>
</filter>
<filter id="filter5_d" x="8" y="0.666687" width="11" height="11" filterUnits="userSpaceOnUse" color-interpolation-filters="sRGB">
<feFlood flood-opacity="0" result="BackgroundImageFix"/>
<feColorMatrix in="SourceAlpha" type="matrix" values="0 0 0 0 0 0 0 0 0 0 0 0 0 0 0 0 0 0 127 0" result="hardAlpha"/>
<feOffset dy="4"/>
<feGaussianBlur stdDeviation="2"/>
<feComposite in2="hardAlpha" operator="out"/>
<feColorMatrix type="matrix" values="0 0 0 0 0 0 0 0 0 0 0 0 0 0 0 0 0 0 0.25 0"/>
<feBlend mode="normal" in2="BackgroundImageFix" result="effect1_dropShadow"/>
<feBlend mode="normal" in="SourceGraphic" in2="effect1_dropShadow" result="shape"/>
</filter>
<filter id="filter6_d" x="9.33331" y="3.41669" width="8.5" height="10.5" filterUnits="userSpaceOnUse" color-interpolation-filters="sRGB">
<feFlood flood-opacity="0" result="BackgroundImageFix"/>
<feColorMatrix in="SourceAlpha" type="matrix" values="0 0 0 0 0 0 0 0 0 0 0 0 0 0 0 0 0 0 127 0" result="hardAlpha"/>
<feOffset dy="4"/>
<feGaussianBlur stdDeviation="2"/>
<feComposite in2="hardAlpha" operator="out"/>
<feColorMatrix type="matrix" values="0 0 0 0 0 0 0 0 0 0 0 0 0 0 0 0 0 0 0.25 0"/>
<feBlend mode="normal" in2="BackgroundImageFix" result="effect1_dropShadow"/>
<feBlend mode="normal" in="SourceGraphic" in2="effect1_dropShadow" result="shape"/>
</filter>
<filter id="filter7_d" x="8.38379" y="33.9442" width="20.0834" height="18.8454" filterUnits="userSpaceOnUse" color-interpolation-filters="sRGB">
<feFlood flood-opacity="0" result="BackgroundImageFix"/>
<feColorMatrix in="SourceAlpha" type="matrix" values="0 0 0 0 0 0 0 0 0 0 0 0 0 0 0 0 0 0 127 0" result="hardAlpha"/>
<feOffset dy="4"/>
<feGaussianBlur stdDeviation="2"/>
<feComposite in2="hardAlpha" operator="out"/>
<feColorMatrix type="matrix" values="0 0 0 0 0 0 0 0 0 0 0 0 0 0 0 0 0 0 0.25 0"/>
<feBlend mode="normal" in2="BackgroundImageFix" result="effect1_dropShadow"/>
<feBlend mode="normal" in="SourceGraphic" in2="effect1_dropShadow" result="shape"/>
</filter>
<filter id="filter8_d" x="43" y="7" width="73" height="26" filterUnits="userSpaceOnUse" color-interpolation-filters="sRGB">
<feFlood flood-opacity="0" result="BackgroundImageFix"/>
<feColorMatrix in="SourceAlpha" type="matrix" values="0 0 0 0 0 0 0 0 0 0 0 0 0 0 0 0 0 0 127 0" result="hardAlpha"/>
<feOffset dy="2"/>
<feGaussianBlur stdDeviation="1"/>
<feComposite in2="hardAlpha" operator="out"/>
<feColorMatrix type="matrix" values="0 0 0 0 0 0 0 0 0 0 0 0 0 0 0 0 0 0 0.1 0"/>
<feBlend mode="normal" in2="BackgroundImageFix" result="effect1_dropShadow"/>
<feBlend mode="normal" in="SourceGraphic" in2="effect1_dropShadow" result="shape"/>
</filter>
<filter id="filter9_d" x="70" y="26" width="52" height="22" filterUnits="userSpaceOnUse" color-interpolation-filters="sRGB">
<feFlood flood-opacity="0" result="BackgroundImageFix"/>
<feColorMatrix in="SourceAlpha" type="matrix" values="0 0 0 0 0 0 0 0 0 0 0 0 0 0 0 0 0 0 127 0" result="hardAlpha"/>
<feOffset dy="2"/>
<feGaussianBlur stdDeviation="1"/>
<feComposite in2="hardAlpha" operator="out"/>
<feColorMatrix type="matrix" values="0 0 0 0 0 0 0 0 0 0 0 0 0 0 0 0 0 0 0.1 0"/>
<feBlend mode="normal" in2="BackgroundImageFix" result="effect1_dropShadow"/>
<feBlend mode="normal" in="SourceGraphic" in2="effect1_dropShadow" result="shape"/>
</filter>
<linearGradient id="paint0_linear" x1="23.9535" y1="4" x2="23.9535" y2="31.1316" gradientUnits="userSpaceOnUse">
<stop stop-color="#5B7410"/>
<stop offset="0.78125" stop-color="#7D9F17" stop-opacity="0.385417"/>
<stop offset="1" stop-color="#7F9E23" stop-opacity="0"/>
</linearGradient>
</defs>
</svg>
