<svg width="300" height="300" viewBox="0 0 300 300" fill="none" xmlns="http://www.w3.org/2000/svg">
<rect width="300" height="300" rx="71" fill="#F4F5F4" fill-opacity="0.45"/>
<g filter="url(#filter0_d)">
<path d="M58.9256 109.5C55.0588 135.895 54.0275 150.515 55.9256 176C59.0788 190.726 61.3774 197.091 67.4256 201.5C81.9703 201.684 88.0971 201.62 98.5579 201.509L99.4256 201.5H148.926C168.937 202.179 179.518 201.847 195.926 198.5C221.085 196.435 227.015 195.805 240.426 194.5C250.252 192.747 252.673 189.767 252.426 181.5C252.492 173.155 251.692 164.614 249.426 145.5C247.512 129.015 246.409 119.756 240.426 101C238.37 91.5931 236.048 86.8365 225.926 81C213.115 79.3542 205.651 79.895 191.926 83C181.115 86.9351 180.921 91.0441 179.426 98C178.258 87.7034 177.35 81.9994 171.426 73C165.506 62.562 159.629 59.9414 143.426 62.5C134.365 63.5578 129.8 64.9562 123.926 71L120.426 87C117.776 71.2836 114.653 63.1411 106.926 49.5C102.575 42.5602 99.6878 39.5129 91.9256 39C81.9495 39.8822 78.7118 43.333 72.9509 49.4731L72.9256 49.5C64.5645 74.3774 62.4696 87.0296 58.9256 109.5Z" fill="url(#paint0_linear)" shape-rendering="crispEdges"/>
<path d="M58.9256 109.5C55.0588 135.895 54.0275 150.515 55.9256 176C59.0788 190.726 61.3774 197.091 67.4256 201.5C81.9703 201.684 88.0971 201.62 98.5579 201.509L99.4256 201.5H148.926C168.937 202.179 179.518 201.847 195.926 198.5C221.085 196.435 227.015 195.805 240.426 194.5C250.252 192.747 252.673 189.767 252.426 181.5C252.492 173.155 251.692 164.614 249.426 145.5C247.512 129.015 246.409 119.756 240.426 101C238.37 91.5931 236.048 86.8365 225.926 81C213.115 79.3542 205.651 79.895 191.926 83C181.115 86.9351 180.921 91.0441 179.426 98C178.258 87.7034 177.35 81.9994 171.426 73C165.506 62.562 159.629 59.9414 143.426 62.5C134.365 63.5578 129.8 64.9562 123.926 71L120.426 87C117.776 71.2836 114.653 63.1411 106.926 49.5C102.575 42.5602 99.6878 39.5129 91.9256 39C81.9495 39.8822 78.7118 43.333 72.9509 49.4731L72.9256 49.5C64.5645 74.3774 62.4696 87.0296 58.9256 109.5Z" stroke="#445513" shape-rendering="crispEdges"/>
</g>
<g filter="url(#filter1_d)">
<path d="M178.343 158.837L149.024 164.72L151.353 171.117L182.442 162.323L178.343 158.837Z" fill="#815F30"/>
<path d="M178.343 158.837L149.024 164.72L151.353 171.117L182.442 162.323L178.343 158.837Z" stroke="#473317"/>
</g>
<g filter="url(#filter2_d)">
<path d="M177.624 238.594L134.752 209.065L132.942 218.59L180.345 247.228L177.624 238.594Z" fill="#815F30"/>
<path d="M177.624 238.594L134.752 209.065L132.942 218.59L180.345 247.228L177.624 238.594Z" stroke="#473317"/>
</g>
<g filter="url(#filter3_d)">
<path d="M196.925 171L162 177.667L168.985 181H185.284L201 177.667L196.925 171Z" fill="#815F30"/>
<path d="M196.925 171L162 177.667L168.985 181H185.284L201 177.667L196.925 171Z" stroke="#473317"/>
</g>
<g filter="url(#filter4_d)">
<path d="M149.105 193.5V185L185.032 190.194L188.137 194.917V197.75L173.056 196.333L149.105 193.5Z" fill="#815F30"/>
<path d="M146 206.25L147.774 202H161.524L201 207.667L199.226 219H185.032L146 206.25Z" fill="#815F30"/>
<path d="M149.105 193.5V185L185.032 190.194L188.137 194.917V197.75L173.056 196.333L149.105 193.5Z" stroke="#473317"/>
<path d="M146 206.25L147.774 202H161.524L201 207.667L199.226 219H185.032L146 206.25Z" stroke="#473317"/>
</g>
<g filter="url(#filter5_d)">
<path d="M100 28C100 32.9706 95.9706 37 91 37C86.0294 37 82 32.9706 82 28C82 23.0294 86.0294 19 91 19C95.9706 19 100 23.0294 100 28Z" fill="#EF727F"/>
<path d="M99 28C99 32.4183 95.4183 36 91 36C86.5817 36 83 32.4183 83 28C83 23.5817 86.5817 20 91 20C95.4183 20 99 23.5817 99 28Z" stroke="black" stroke-width="2"/>
</g>
<g filter="url(#filter6_d)">
<line x1="91" y1="35.5" x2="91" y2="50.5" stroke="black" stroke-width="2"/>
</g>
<g filter="url(#filter7_d)">
<path d="M133.147 232.115L99.2475 220.295L90.9014 224.666L112.374 235.356L138.745 246.91L140.289 238.154L133.147 232.115Z" fill="#815F30"/>
<path d="M127.335 265.079L155.112 275.819L154.022 282L150.348 281.352L133.569 276.269L109.986 266.8L87.9012 256.002L100.193 250.734L105.68 255.419L127.335 265.079Z" fill="#815F30"/>
<path d="M133.147 232.115L99.2475 220.295L90.9014 224.666L112.374 235.356L138.745 246.91L140.289 238.154L133.147 232.115Z" stroke="#473317"/>
<path d="M127.335 265.079L155.112 275.819L154.022 282L150.348 281.352L133.569 276.269L109.986 266.8L87.9012 256.002L100.193 250.734L105.68 255.419L127.335 265.079Z" stroke="#473317"/>
</g>
<defs>
<filter id="filter0_d" x="50.5" y="38.4985" width="206.442" height="171.791" filterUnits="userSpaceOnUse" color-interpolation-filters="sRGB">
<feFlood flood-opacity="0" result="BackgroundImageFix"/>
<feColorMatrix in="SourceAlpha" type="matrix" values="0 0 0 0 0 0 0 0 0 0 0 0 0 0 0 0 0 0 127 0" result="hardAlpha"/>
<feOffset dy="4"/>
<feGaussianBlur stdDeviation="2"/>
<feComposite in2="hardAlpha" operator="out"/>
<feColorMatrix type="matrix" values="0 0 0 0 0 0 0 0 0 0 0 0 0 0 0 0 0 0 0.25 0"/>
<feBlend mode="normal" in2="BackgroundImageFix" result="effect1_dropShadow"/>
<feBlend mode="normal" in="SourceGraphic" in2="effect1_dropShadow" result="shape"/>
</filter>
<filter id="filter1_d" x="143.174" y="153.329" width="44.8823" height="31.6666" filterUnits="userSpaceOnUse" color-interpolation-filters="sRGB">
<feFlood flood-opacity="0" result="BackgroundImageFix"/>
<feColorMatrix in="SourceAlpha" type="matrix" values="0 0 0 0 0 0 0 0 0 0 0 0 0 0 0 0 0 0 127 0" result="hardAlpha"/>
<feOffset dy="4"/>
<feGaussianBlur stdDeviation="2"/>
<feComposite in2="hardAlpha" operator="out"/>
<feColorMatrix type="matrix" values="0 0 0 0 0 0 0 0 0 0 0 0 0 0 0 0 0 0 0.25 0"/>
<feBlend mode="normal" in2="BackgroundImageFix" result="effect1_dropShadow"/>
<feBlend mode="normal" in="SourceGraphic" in2="effect1_dropShadow" result="shape"/>
</filter>
<filter id="filter2_d" x="123.991" y="199.147" width="64.323" height="69.0492" filterUnits="userSpaceOnUse" color-interpolation-filters="sRGB">
<feFlood flood-opacity="0" result="BackgroundImageFix"/>
<feColorMatrix in="SourceAlpha" type="matrix" values="0 0 0 0 0 0 0 0 0 0 0 0 0 0 0 0 0 0 127 0" result="hardAlpha"/>
<feOffset dy="4"/>
<feGaussianBlur stdDeviation="2"/>
<feComposite in2="hardAlpha" operator="out"/>
<feColorMatrix type="matrix" values="0 0 0 0 0 0 0 0 0 0 0 0 0 0 0 0 0 0 0.25 0"/>
<feBlend mode="normal" in2="BackgroundImageFix" result="effect1_dropShadow"/>
<feBlend mode="normal" in="SourceGraphic" in2="effect1_dropShadow" result="shape"/>
</filter>
<filter id="filter3_d" x="156.409" y="170.444" width="49.3865" height="19.056" filterUnits="userSpaceOnUse" color-interpolation-filters="sRGB">
<feFlood flood-opacity="0" result="BackgroundImageFix"/>
<feColorMatrix in="SourceAlpha" type="matrix" values="0 0 0 0 0 0 0 0 0 0 0 0 0 0 0 0 0 0 127 0" result="hardAlpha"/>
<feOffset dy="4"/>
<feGaussianBlur stdDeviation="2"/>
<feComposite in2="hardAlpha" operator="out"/>
<feColorMatrix type="matrix" values="0 0 0 0 0 0 0 0 0 0 0 0 0 0 0 0 0 0 0.25 0"/>
<feBlend mode="normal" in2="BackgroundImageFix" result="effect1_dropShadow"/>
<feBlend mode="normal" in="SourceGraphic" in2="effect1_dropShadow" result="shape"/>
</filter>
<filter id="filter4_d" x="141.33" y="184.423" width="64.2423" height="43.0775" filterUnits="userSpaceOnUse" color-interpolation-filters="sRGB">
<feFlood flood-opacity="0" result="BackgroundImageFix"/>
<feColorMatrix in="SourceAlpha" type="matrix" values="0 0 0 0 0 0 0 0 0 0 0 0 0 0 0 0 0 0 127 0" result="hardAlpha"/>
<feOffset dy="4"/>
<feGaussianBlur stdDeviation="2"/>
<feComposite in2="hardAlpha" operator="out"/>
<feColorMatrix type="matrix" values="0 0 0 0 0 0 0 0 0 0 0 0 0 0 0 0 0 0 0.25 0"/>
<feBlend mode="normal" in2="BackgroundImageFix" result="effect1_dropShadow"/>
<feBlend mode="normal" in="SourceGraphic" in2="effect1_dropShadow" result="shape"/>
</filter>
<filter id="filter5_d" x="78" y="19" width="26" height="26" filterUnits="userSpaceOnUse" color-interpolation-filters="sRGB">
<feFlood flood-opacity="0" result="BackgroundImageFix"/>
<feColorMatrix in="SourceAlpha" type="matrix" values="0 0 0 0 0 0 0 0 0 0 0 0 0 0 0 0 0 0 127 0" result="hardAlpha"/>
<feOffset dy="4"/>
<feGaussianBlur stdDeviation="2"/>
<feComposite in2="hardAlpha" operator="out"/>
<feColorMatrix type="matrix" values="0 0 0 0 0 0 0 0 0 0 0 0 0 0 0 0 0 0 0.25 0"/>
<feBlend mode="normal" in2="BackgroundImageFix" result="effect1_dropShadow"/>
<feBlend mode="normal" in="SourceGraphic" in2="effect1_dropShadow" result="shape"/>
</filter>
<filter id="filter6_d" x="86" y="35.5" width="10" height="23" filterUnits="userSpaceOnUse" color-interpolation-filters="sRGB">
<feFlood flood-opacity="0" result="BackgroundImageFix"/>
<feColorMatrix in="SourceAlpha" type="matrix" values="0 0 0 0 0 0 0 0 0 0 0 0 0 0 0 0 0 0 127 0" result="hardAlpha"/>
<feOffset dy="4"/>
<feGaussianBlur stdDeviation="2"/>
<feComposite in2="hardAlpha" operator="out"/>
<feColorMatrix type="matrix" values="0 0 0 0 0 0 0 0 0 0 0 0 0 0 0 0 0 0 0.25 0"/>
<feBlend mode="normal" in2="BackgroundImageFix" result="effect1_dropShadow"/>
<feBlend mode="normal" in="SourceGraphic" in2="effect1_dropShadow" result="shape"/>
</filter>
<filter id="filter7_d" x="77.8489" y="218.292" width="89.6577" height="72.2871" filterUnits="userSpaceOnUse" color-interpolation-filters="sRGB">
<feFlood flood-opacity="0" result="BackgroundImageFix"/>
<feColorMatrix in="SourceAlpha" type="matrix" values="0 0 0 0 0 0 0 0 0 0 0 0 0 0 0 0 0 0 127 0" result="hardAlpha"/>
<feOffset dy="4"/>
<feGaussianBlur stdDeviation="2"/>
<feComposite in2="hardAlpha" operator="out"/>
<feColorMatrix type="matrix" values="0 0 0 0 0 0 0 0 0 0 0 0 0 0 0 0 0 0 0.25 0"/>
<feBlend mode="normal" in2="BackgroundImageFix" result="effect1_dropShadow"/>
<feBlend mode="normal" in="SourceGraphic" in2="effect1_dropShadow" result="shape"/>
</filter>
<linearGradient id="paint0_linear" x1="153.721" y1="39" x2="153.721" y2="201.79" gradientUnits="userSpaceOnUse">
<stop stop-color="#5B7410"/>
<stop offset="0.78125" stop-color="#7D9F17" stop-opacity="0.385417"/>
<stop offset="1" stop-color="#7F9E23" stop-opacity="0"/>
</linearGradient>
</defs>
</svg>
