<svg width="1024" height="895" viewBox="0 0 1024 895" fill="none" xmlns="http://www.w3.org/2000/svg">
<g clip-path="url(#clip0)">
<path d="M1001 895H24C-2.66669 870.333 -7.00002 849.667 11 833L410 15C420.667 5 433.333 0 448 0C462.667 0 475.333 5 486 15L664 379L698 271C708 261 720.5 256 735.5 256C750.5 256 763.333 261 774 271L1013 833C1031 849.667 1027 870.333 1001 895ZM448 128L321 383C321 387.667 320.5 394.333 319.5 403C318.5 411.667 318.167 418 318.5 422C318.833 426 319.833 430.5 321.5 435.5C323.167 440.5 326.5 443.833 331.5 445.5C336.5 447.167 343.667 447.667 353 447C367 446.333 379.5 442.5 390.5 435.5C401.5 428.5 410.167 421.167 416.5 413.5C422.833 405.833 431.5 398.833 442.5 392.5C453.5 386.167 466 383 480 383C492 383 503.333 387.5 514 396.5C524.667 405.5 534.167 416.5 542.5 429.5C550.833 442.5 559.5 455.333 568.5 468C577.5 480.667 588.167 491.167 600.5 499.5C612.833 507.833 626 511.667 640 511L448 128Z" fill="#7F9E23"/>
</g>
<defs>
<clipPath id="clip0">
<rect width="1024" height="895" fill="white"/>
</clipPath>
</defs>
</svg>
