<svg width="21" height="34" viewBox="0 0 21 34" fill="none" xmlns="http://www.w3.org/2000/svg">
<path d="M10.6968 0.5C16.1875 0.5 20.4993 4.52813 20.4993 9.2526C20.4993 9.819 20.3505 10.6298 20.0667 11.6428C19.7853 12.6469 19.3811 13.8165 18.8921 15.0877C17.9142 17.6297 16.6077 20.5513 15.2975 23.3217C13.988 26.0907 12.678 28.7019 11.6952 30.6213C11.2038 31.5808 10.7945 32.367 10.508 32.9132C10.5052 32.9186 10.5024 32.9239 10.4997 32.9292C10.4969 32.9239 10.4941 32.9186 10.4913 32.9132C10.2048 32.367 9.79546 31.5808 9.30413 30.6213C8.3213 28.7019 7.01135 26.0907 5.70183 23.3217C4.39164 20.5513 3.08514 17.6297 2.10723 15.0877C1.6182 13.8165 1.21395 12.6469 0.932617 11.6428C0.648797 10.6298 0.5 9.819 0.5 9.2526C0.5 4.52813 4.81185 0.5 10.3025 0.5H10.6968ZM10.4997 13.2057C13.2978 13.2057 15.6826 11.0736 15.6826 8.41146C15.6826 5.78404 13.2872 3.70573 10.4997 3.70573C7.66638 3.70573 5.26741 5.78085 5.26741 8.41146C5.26741 11.0768 7.65579 13.2057 10.4997 13.2057Z" fill="#E01313" stroke="#A61515"/>
</svg>
