<svg width="22" height="20" viewBox="0 0 22 20" fill="none" xmlns="http://www.w3.org/2000/svg">
<path d="M8.88894 14.8519C10.4667 14.8516 11.999 14.3931 13.2418 13.5494L17.1494 16.9414L18.4063 15.8504L14.4987 12.4584C15.4712 11.3794 15.9997 10.049 16.0001 8.67907C16.0001 5.27552 12.8098 2.50623 8.88894 2.50623C4.96805 2.50623 1.77783 5.27552 1.77783 8.67907C1.77783 12.0826 4.96805 14.8519 8.88894 14.8519ZM8.88894 4.04944C11.8303 4.04944 14.2223 6.12582 14.2223 8.67907C14.2223 11.2323 11.8303 13.3087 8.88894 13.3087C5.94761 13.3087 3.55561 11.2323 3.55561 8.67907C3.55561 6.12582 5.94761 4.04944 8.88894 4.04944Z" fill="#7F9E23"/>
</svg>
