<svg width="50" height="50" viewBox="0 0 50 50" fill="none" xmlns="http://www.w3.org/2000/svg">
<path d="M20.8333 37.5002C24.5312 37.4994 28.1225 36.2615 31.0354 33.9835L40.1937 43.1418L43.1395 40.196L33.9812 31.0377C36.2604 28.1245 37.4991 24.5323 37.5 20.8335C37.5 11.6439 30.0229 4.16682 20.8333 4.16682C11.6437 4.16682 4.16663 11.6439 4.16663 20.8335C4.16663 30.0231 11.6437 37.5002 20.8333 37.5002ZM20.8333 8.33349C27.727 8.33349 33.3333 13.9397 33.3333 20.8335C33.3333 27.7272 27.727 33.3335 20.8333 33.3335C13.9395 33.3335 8.33329 27.7272 8.33329 20.8335C8.33329 13.9397 13.9395 8.33349 20.8333 8.33349Z" fill="#7F9E23"/>
</svg>
