<svg width="14" height="14" viewBox="0 0 14 14" fill="none" xmlns="http://www.w3.org/2000/svg">
<path d="M5.83317 10.4998C6.86857 10.4996 7.87414 10.153 8.68975 9.51517L11.2541 12.0795L12.0789 11.2547L9.51459 8.69034C10.1528 7.87464 10.4996 6.86884 10.4998 5.83317C10.4998 3.26009 8.40625 1.1665 5.83317 1.1665C3.26009 1.1665 1.1665 3.26009 1.1665 5.83317C1.1665 8.40625 3.26009 10.4998 5.83317 10.4998ZM5.83317 2.33317C7.76342 2.33317 9.33317 3.90292 9.33317 5.83317C9.33317 7.76342 7.76342 9.33317 5.83317 9.33317C3.90292 9.33317 2.33317 7.76342 2.33317 5.83317C2.33317 3.90292 3.90292 2.33317 5.83317 2.33317Z" fill="#7F9E23"/>
</svg>
