<svg width="14" height="13" viewBox="0 0 14 13" fill="none" xmlns="http://www.w3.org/2000/svg">
<path d="M1.06336 0.0704598L13.5781 5.85306C13.7044 5.91147 13.8111 6.00321 13.8857 6.11769C13.9604 6.23216 14 6.3647 14 6.5C14 6.6353 13.9604 6.76784 13.8857 6.88231C13.8111 6.99679 13.7044 7.08853 13.5781 7.14694L1.06336 12.9295C0.935014 12.989 0.791689 13.0115 0.650457 12.9945C0.509225 12.9774 0.376038 12.9215 0.26676 12.8334C0.157481 12.7454 0.076717 12.6288 0.0340863 12.4976C-0.00854428 12.3664 -0.0112445 12.2262 0.0263072 12.0935L1.27837 7.65933C1.2937 7.60499 1.32525 7.5562 1.36908 7.51906C1.41291 7.48192 1.46709 7.45807 1.52487 7.45047L7.5892 6.65463C7.61448 6.65121 7.63843 6.64154 7.65871 6.62656C7.679 6.61159 7.69495 6.59181 7.70502 6.56914L7.71571 6.53299C7.7204 6.50096 7.71373 6.46833 7.6968 6.44042C7.67988 6.4125 7.65368 6.39094 7.62246 6.37922L7.58979 6.37061L1.5314 5.57535C1.47374 5.56765 1.41968 5.54375 1.37596 5.50661C1.33225 5.46948 1.30079 5.42075 1.2855 5.36649L0.0263072 0.906463C-0.0112445 0.773841 -0.00854428 0.633586 0.0340863 0.502404C0.076717 0.371223 0.157481 0.254643 0.26676 0.16655C0.376038 0.0784565 0.509225 0.0225633 0.650457 0.00552727C0.791689 -0.0115088 0.935014 0.0110302 1.06336 0.0704598Z" fill="#7F9E23"/>
</svg>
