<svg width="29" height="29" viewBox="0 0 29 29" fill="none" xmlns="http://www.w3.org/2000/svg">
<path d="M14.5141 5.39209L11.8406 10.8098L5.85938 11.6792L10.1867 15.8989L9.16436 21.8547L14.5141 19.0425L19.8638 21.8519L18.8414 15.8961L23.1687 11.6792L17.1875 10.8098L14.5141 5.39209Z" fill="white"/>
<path d="M25.7317 9.99142L18.5412 8.9464L15.3268 2.42989C15.239 2.25148 15.0946 2.10704 14.9162 2.01925C14.4687 1.79835 13.925 1.98243 13.7012 2.42989L10.4869 8.9464L3.29636 9.99142C3.09812 10.0197 2.91687 10.1132 2.7781 10.2548C2.61034 10.4272 2.51789 10.6592 2.52108 10.8998C2.52426 11.1403 2.62282 11.3698 2.79509 11.5377L7.99753 16.6099L6.76843 23.7721C6.73961 23.9387 6.75805 24.11 6.82165 24.2667C6.88526 24.4234 6.99149 24.5591 7.12829 24.6584C7.2651 24.7578 7.42701 24.8168 7.59567 24.8289C7.76432 24.8409 7.93297 24.8054 8.0825 24.7265L14.514 21.345L20.9456 24.7265C21.1212 24.8199 21.3251 24.8511 21.5205 24.8171C22.0133 24.7321 22.3446 24.2649 22.2596 23.7721L21.0305 16.6099L26.233 11.5377C26.3746 11.3989 26.468 11.2177 26.4964 11.0194C26.5728 10.5238 26.2273 10.065 25.7317 9.99142ZM18.8414 15.8962L19.8637 21.852L14.514 19.0426L9.16433 21.8548L10.1867 15.899L5.85935 11.6793L11.8406 10.8099L14.514 5.3922L17.1875 10.8099L23.1687 11.6793L18.8414 15.8962Z" fill="#7F9E23"/>
</svg>
