<svg width="50" height="50" viewBox="0 0 50 50" fill="none" xmlns="http://www.w3.org/2000/svg">
<path d="M25.0244 9.29688L20.415 18.6377L10.1025 20.1367L17.5635 27.4121L15.8008 37.6807L25.0244 32.832L34.2481 37.6758L32.4854 27.4072L39.9463 20.1367L29.6338 18.6377L25.0244 9.29688Z" fill="#F4EB0B"/>
<path d="M44.3653 17.2266L31.9678 15.4248L26.4258 4.18946C26.2745 3.88185 26.0254 3.63282 25.7178 3.48146C24.9463 3.1006 24.0088 3.41798 23.6231 4.18946L18.0811 15.4248L5.68364 17.2266C5.34184 17.2754 5.02934 17.4365 4.79008 17.6807C4.50084 17.978 4.34145 18.3779 4.34694 18.7927C4.35243 19.2074 4.52236 19.6031 4.81938 19.8926L13.7891 28.6377L11.67 40.9863C11.6203 41.2736 11.6521 41.569 11.7617 41.8391C11.8714 42.1092 12.0545 42.3432 12.2904 42.5145C12.5263 42.6859 12.8055 42.7876 13.0962 42.8084C13.387 42.8291 13.6778 42.768 13.9356 42.6318L25.0245 36.8018L36.1133 42.6318C36.4161 42.793 36.7676 42.8467 37.1045 42.7881C37.9542 42.6416 38.5254 41.8359 38.379 40.9863L36.2598 28.6377L45.2295 19.8926C45.4737 19.6533 45.6348 19.3408 45.6836 18.999C45.8155 18.1445 45.2198 17.3535 44.3653 17.2266ZM32.4854 27.4072L34.2481 37.6758L25.0245 32.832L15.8008 37.6807L17.5635 27.4121L10.1026 20.1367L20.4151 18.6377L25.0245 9.29688L29.6338 18.6377L39.9463 20.1367L32.4854 27.4072Z" fill="#C6A500"/>
</svg>
