<svg width="47" height="48" viewBox="0 0 47 48" fill="none" xmlns="http://www.w3.org/2000/svg">
<path d="M0.5 25.5C0.5 24.9747 0.603463 24.4546 0.804482 23.9693C1.0055 23.484 1.30014 23.043 1.67157 22.6716C2.04301 22.3001 2.48396 22.0055 2.96927 21.8045C3.45457 21.6035 3.97471 21.5 4.5 21.5C5.02529 21.5 5.54543 21.6035 6.03073 21.8045C6.51604 22.0055 6.95699 22.3001 7.32843 22.6716C7.69986 23.043 7.9945 23.484 8.19552 23.9693C8.39654 24.4546 8.5 24.9747 8.5 25.5V43.5C8.5 44.5609 8.07857 45.5783 7.32843 46.3284C6.57828 47.0786 5.56087 47.5 4.5 47.5C3.43913 47.5 2.42172 47.0786 1.67157 46.3284C0.921427 45.5783 0.5 44.5609 0.5 43.5V25.5Z" fill="black" stroke="black"/>
<path d="M12.5 41.2892V41.289V24.999C12.5 22.5108 13.307 20.0897 14.7999 18.0991C14.8 18.099 14.8 18.099 14.8 18.099L18.9999 12.5011L19 12.501C20.6228 10.3373 21.5 7.70563 21.5 5.001V3C21.5 2.33696 21.7634 1.70107 22.2322 1.23223C22.7011 0.763392 23.337 0.5 24 0.5C25.4587 0.5 26.8576 1.07946 27.8891 2.11091C28.9205 3.14236 29.5 4.54131 29.5 6V18V18.5H30H40.6799C40.68 18.5 40.68 18.5 40.68 18.5C41.4936 18.5001 42.2971 18.6807 43.0325 19.0288C43.7679 19.3769 44.4169 19.8838 44.9327 20.513C45.4486 21.1422 45.8184 21.8781 46.0155 22.6675C46.2126 23.4568 46.2322 24.2801 46.0727 25.0779C46.0727 25.078 46.0727 25.078 46.0727 25.078L42.4727 43.0779L42.4727 43.078C42.2234 44.3253 41.5495 45.4476 40.5657 46.2539C39.582 47.0601 38.3491 47.5005 37.0772 47.5H37.077H20.8292C20.8291 47.5 20.8291 47.5 20.829 47.5C19.0456 47.4994 17.2868 47.084 15.6915 46.2867L15.5416 46.2118L15.5415 46.2117C14.6272 45.7549 13.8583 45.0523 13.3211 44.1828C12.7839 43.3133 12.4995 42.3113 12.5 41.2892Z" fill="#7F9E23" fill-opacity="0.01" stroke="black"/>
</svg>
