<svg width="50" height="50" viewBox="0 0 50 50" fill="none" xmlns="http://www.w3.org/2000/svg">
<path d="M5.5 26.25C5.5 25.8232 5.58406 25.4006 5.74739 25.0063C5.91072 24.612 6.15011 24.2537 6.4519 23.9519C6.75369 23.6501 7.11197 23.4107 7.50628 23.2474C7.90059 23.0841 8.3232 23 8.75 23C9.1768 23 9.59941 23.0841 9.99372 23.2474C10.388 23.4107 10.7463 23.6501 11.0481 23.9519C11.3499 24.2537 11.5893 24.612 11.7526 25.0063C11.9159 25.4006 12 25.8232 12 26.25V41.25C12 42.112 11.6576 42.9386 11.0481 43.5481C10.4386 44.1576 9.61195 44.5 8.75 44.5C7.88805 44.5 7.0614 44.1576 6.4519 43.5481C5.84241 42.9386 5.5 42.112 5.5 41.25V26.25Z" fill="black" stroke="black"/>
<path d="M15.5 39.4077V39.4075V25.8325C15.5 23.777 16.1667 21.777 17.3999 20.1326C17.4 20.1325 17.4 20.1325 17.4 20.1325L20.8999 15.4676L20.9 15.4675C22.2631 13.65 23 11.4394 23 9.1675V7.5C23 6.96957 23.2107 6.46086 23.5858 6.08579C23.9609 5.71071 24.4696 5.5 25 5.5C26.1935 5.5 27.3381 5.97411 28.182 6.81802C29.0259 7.66193 29.5 8.80653 29.5 10V20V20.5H30H38.8999C38.9 20.5 38.9 20.5 38.9 20.5C39.5657 20.5001 40.2231 20.6478 40.8247 20.9326C41.4264 21.2175 41.9575 21.6322 42.3795 22.147C42.8015 22.6618 43.1041 23.2639 43.2654 23.9097C43.4267 24.5556 43.4427 25.2292 43.3122 25.8819C43.3122 25.882 43.3122 25.882 43.3122 25.882L40.3122 40.8819L40.3122 40.882C40.1082 41.9025 39.5568 42.8208 38.7519 43.4804C37.947 44.1401 36.9384 44.5004 35.8977 44.5H35.8975H22.3577C22.3576 44.5 22.3576 44.5 22.3575 44.5C20.8843 44.4995 19.4313 44.1564 18.1135 43.4977L17.9886 43.4353L17.9885 43.4352C17.2405 43.0614 16.6114 42.4866 16.1718 41.7752C15.7322 41.0638 15.4996 40.244 15.5 39.4077Z" fill="#7F9E23" fill-opacity="0.01" stroke="black"/>
</svg>
