<svg width="48" height="48" viewBox="0 0 48 48" fill="none" xmlns="http://www.w3.org/2000/svg">
<path d="M0.5 25.5C0.5 24.9767 0.605974 24.4581 0.812244 23.9739C1.01853 23.4895 1.32127 23.0486 1.7039 22.6765C2.08655 22.3043 2.54157 22.0084 3.04334 21.8063C3.54512 21.6042 4.0834 21.5 4.62731 21.5C5.17122 21.5 5.7095 21.6042 6.21128 21.8063C6.71305 22.0084 7.16808 22.3043 7.55073 22.6765C7.93335 23.0486 8.23609 23.4895 8.44238 23.9739C8.64865 24.4581 8.75462 24.9767 8.75462 25.5V43.5C8.75462 44.5563 8.32327 45.5722 7.55073 46.3235C6.77771 47.0753 5.72637 47.5 4.62731 47.5C3.52825 47.5 2.47691 47.0753 1.7039 46.3235C0.931352 45.5722 0.5 44.5563 0.5 43.5V25.5Z" fill="black" stroke="black"/>
<path d="M12.8396 41.2892V41.289V24.999C12.8396 22.5143 13.6682 20.095 15.2034 18.1044C15.2034 18.1044 15.2034 18.1044 15.2034 18.1043L19.5222 12.5064L19.5223 12.5063C21.1909 10.3427 22.0942 7.70915 22.0942 5.001V3C22.0942 2.34153 22.3631 1.70711 22.8463 1.23713C23.3301 0.766684 23.9891 0.5 24.6791 0.5C26.1872 0.5 27.6309 1.08275 28.6932 2.11581C29.755 3.1484 30.3488 4.54588 30.3488 6V18V18.5H30.8488H41.8309C41.831 18.5 41.831 18.5 41.831 18.5C42.6719 18.5001 43.5019 18.6816 44.2609 19.031C45.0199 19.3804 45.6886 19.8887 46.2194 20.5183C46.7501 21.1478 47.1297 21.8831 47.332 22.6707C47.5342 23.4582 47.5542 24.2794 47.3907 25.0753C47.3907 25.0753 47.3907 25.0753 47.3907 25.0753L43.6888 43.0753L43.6888 43.0753C43.4331 44.3194 42.7414 45.4417 41.7278 46.2496C40.7138 47.0577 39.4412 47.5005 38.1263 47.5H38.1261H21.4185C21.4185 47.5 21.4184 47.5 21.4184 47.5C19.58 47.4994 17.7675 47.083 16.1243 46.2843L15.9701 46.2093L15.97 46.2093C15.0264 45.7508 14.2349 45.0466 13.6827 44.1775C13.1306 43.3085 12.8391 42.3084 12.8396 41.2892Z" fill="#7F9E23" stroke="black"/>
</svg>
