<svg width="18" height="18" viewBox="0 0 18 18" fill="none" xmlns="http://www.w3.org/2000/svg">
<g clip-path="url(#clip0)">
<path d="M4.5 13.875V2.25H17.25V13.875C17.25 14.3723 17.0525 14.8492 16.7008 15.2008C16.3492 15.5525 15.8723 15.75 15.375 15.75H2.625M12 5.25H14.25V8.25H12V5.25ZM6.75 11.25H15H6.75ZM6.75 8.25H9.75H6.75ZM6.75 5.25H9.75H6.75ZM4.5 13.875C4.5 14.3723 4.30246 14.8492 3.95082 15.2008C3.59919 15.5525 3.12228 15.75 2.625 15.75C2.12772 15.75 1.65081 15.5525 1.29917 15.2008C0.947544 14.8492 0.75 14.3723 0.75 13.875V5.25H4.51875L4.5 13.875Z" stroke="#815F30" stroke-width="2"/>
</g>
<defs>
<clipPath id="clip0">
<rect width="18" height="18" fill="white"/>
</clipPath>
</defs>
</svg>
