<svg width="100" height="100" viewBox="0 0 100 100" fill="none" xmlns="http://www.w3.org/2000/svg">
<rect width="100" height="100" rx="50" fill="none"/>
<path d="M59.9998 54C56.5832 54 54.9403 55.6667 49.3332 55.6667C43.726 55.6667 42.0951 54 38.6665 54C29.8332 54 22.6665 60.2709 22.6665 68V70.6667C22.6665 73.4271 25.226 75.6667 28.3808 75.6667H70.2856C73.4403 75.6667 75.9998 73.4271 75.9998 70.6667V68C75.9998 60.2709 68.8332 54 59.9998 54ZM70.2856 70.6667H28.3808V68C28.3808 63.0417 32.9998 59 38.6665 59C40.4046 59 43.226 60.6667 49.3332 60.6667C55.4879 60.6667 58.2498 59 59.9998 59C65.6665 59 70.2856 63.0417 70.2856 68V70.6667ZM49.3332 52.3334C58.7975 52.3334 66.476 45.6146 66.476 37.3334C66.476 29.0521 58.7975 22.3334 49.3332 22.3334C39.8689 22.3334 32.1903 29.0521 32.1903 37.3334C32.1903 45.6146 39.8689 52.3334 49.3332 52.3334ZM49.3332 27.3334C55.6308 27.3334 60.7617 31.823 60.7617 37.3334C60.7617 42.8438 55.6308 47.3334 49.3332 47.3334C43.0356 47.3334 37.9046 42.8438 37.9046 37.3334C37.9046 31.823 43.0356 27.3334 49.3332 27.3334Z" fill="#7F9E23"/>
</svg>
