<svg width="100" height="100" viewBox="0 0 100 100" fill="#FCFCFC" xmlns="http://www.w3.org/2000/svg">
<rect x="1" y="1" width="98" height="98" rx="49" fill="#FCFCFC" stroke="#7F9E23" stroke-width="2"/>
<path d="M73.4545 65.5096V32.6966C74.5634 33.1426 75.5634 33.6591 76.5 34.3121V70.835C76.4998 70.8368 76.4978 70.8525 76.4845 70.8812C76.4677 70.9175 76.4385 70.9613 76.3968 71.0032C76.3551 71.0452 76.3119 71.0741 76.277 71.0905C76.2527 71.1019 76.2389 71.1043 76.2361 71.1048C76.1698 71.1048 76.1356 71.1046 76.1078 71.1035C76.1033 71.1033 76.0996 71.1032 76.0965 71.103C76.0903 71.1003 76.0807 71.0961 76.0675 71.0896C72.3487 69.0907 67.8887 68.3145 63.625 68.3145C61.369 68.3145 58.6609 68.7454 56.094 69.4435C53.7974 70.0679 51.5513 70.9232 49.8021 71.9219C45.9316 69.2483 40.656 68.3145 35.875 68.3145C32.1201 68.3145 27.1486 69.4563 23.6195 71.1265C23.4612 71.1517 23.3401 71.1926 23.2726 71.2154C23.2678 71.217 23.2632 71.2186 23.2589 71.22C23.2529 71.222 23.2474 71.2239 23.2424 71.2255C23.2369 71.2235 23.2305 71.2208 23.223 71.2173C23.1881 71.2009 23.1449 71.172 23.1032 71.1301C23.0615 71.0882 23.0323 71.0443 23.0155 71.008C23.0022 70.9793 23.0002 70.9637 23 70.9618V34.3093C26.3928 31.9255 31.2324 30.9974 35.875 30.9974C40.5176 30.9974 45.3572 31.9255 48.75 34.3093V68.0462V69.8629L50.2849 68.8911C51.8739 67.8851 54.1674 66.9668 56.6188 66.3002C59.0658 65.6348 61.5924 65.2413 63.625 65.2413C66.5725 65.2413 69.4936 65.6123 72.1498 66.4621L73.4545 66.8795V65.5096ZM44.4553 66.2498L45.7045 66.5713V65.2813V36.6687V36.0173L45.1088 35.754C42.654 34.669 39.4056 34.0706 35.875 34.0706C32.3444 34.0706 29.096 34.669 26.6412 35.754L26.0455 36.0173V36.6687V65.5096V66.8081L27.3008 66.4765C30.2158 65.7065 33.3068 65.2413 35.875 65.2413C38.3434 65.2413 41.4078 65.4653 44.4553 66.2498ZM55.7955 59.4511V34.2149L66.4091 23.543V49.8464L55.7955 59.4511Z" fill="#7F9E23" stroke="#7F9E23" stroke-width="2"/>
</svg>
