<svg width="100" height="100" viewBox="0 0 100 100" fill="none" xmlns="http://www.w3.org/2000/svg">
<rect x="1" y="1" width="98" height="98" rx="49" fill="white" stroke="#7F9E23" stroke-width="2"/>
<path d="M60.3929 63.3111H60.7461L60.8641 62.9783C61.5036 61.1761 62.685 59.6158 64.2463 58.5116C65.8076 57.4074 67.6723 56.8134 69.5845 56.811C71.28 56.811 72.9429 57.277 74.3915 58.1582C75.8402 59.0395 77.0188 60.3021 77.7984 61.808C78.5781 63.3139 78.9287 65.0052 78.8121 66.6969C78.6954 68.3886 78.116 70.0157 77.1371 71.4004C76.1581 72.785 74.8174 73.8739 73.2614 74.548C71.7055 75.2221 69.9941 75.4555 68.3145 75.2227C66.6348 74.9898 65.0515 74.2997 63.7376 73.2278C62.4237 72.1558 61.4297 70.7433 60.8643 69.1445L60.7465 68.8112H60.3929H34.9173C31.3148 68.8112 27.8598 67.3801 25.3124 64.8327C22.7651 62.2853 21.334 58.8302 21.334 55.2276C21.334 51.625 22.7651 48.17 25.3124 45.6225C27.8598 43.0751 31.3148 41.644 34.9173 41.644H60.9173C62.4865 41.644 63.9914 41.0206 65.101 39.911C66.2106 38.8014 66.8339 37.2964 66.8339 35.7272C66.8339 34.158 66.2106 32.653 65.101 31.5434C63.9914 30.4338 62.4865 29.8104 60.9173 29.8104H34.9173C34.188 29.8104 33.4885 29.5207 32.9728 29.005C32.457 28.4892 32.1673 27.7897 32.1673 27.0604C32.1673 26.331 32.457 25.6315 32.9728 25.1158C33.4885 24.6 34.188 24.3103 34.9173 24.3103H60.9173C63.9451 24.3103 66.849 25.5132 68.99 27.6542C71.1311 29.7953 72.3339 32.6993 72.3339 35.7272C72.3339 38.7552 71.1311 41.6591 68.99 43.8002C66.849 45.9413 63.9451 47.1441 60.9173 47.1441H34.9173C32.7735 47.1441 30.7174 47.9958 29.2015 49.5117C27.6856 51.0277 26.834 53.0837 26.834 55.2276C26.834 57.3715 27.6856 59.4276 29.2015 60.9435C30.7174 62.4595 32.7735 63.3111 34.9173 63.3111H60.3929ZM73.3339 66.0617V66.0612C73.3339 65.3195 73.114 64.5945 72.7019 63.9778C72.2899 63.3611 71.7042 62.8804 71.019 62.5966C70.3338 62.3127 69.5798 62.2385 68.8523 62.3832C68.1249 62.5279 67.4567 62.885 66.9323 63.4095C66.4078 63.9339 66.0507 64.6021 65.906 65.3296C65.7613 66.057 65.8355 66.811 66.1194 67.4963C66.4032 68.1815 66.8838 68.7672 67.5005 69.1792C68.1172 69.5913 68.8422 69.8112 69.5839 69.8112H69.5845C70.5785 69.8102 71.5316 69.4148 72.2345 68.7118C72.9375 68.0089 73.3328 67.0558 73.3339 66.0617Z" fill="#7F9E23" stroke="#7F9E23"/>
</svg>
