<svg width="13" height="15" viewBox="0 0 13 15" fill="none" xmlns="http://www.w3.org/2000/svg">
<path d="M4.27648 5.40442C4.39617 5.40442 4.51095 5.45618 4.59558 5.54832C4.68022 5.64046 4.72776 5.76542 4.72776 5.89573V11.7914C4.72776 11.9217 4.68022 12.0467 4.59558 12.1388C4.51095 12.231 4.39617 12.2827 4.27648 12.2827C4.15679 12.2827 4.04201 12.231 3.95737 12.1388C3.87274 12.0467 3.8252 11.9217 3.8252 11.7914V5.89573C3.8252 5.76542 3.87274 5.64046 3.95737 5.54832C4.04201 5.45618 4.15679 5.40442 4.27648 5.40442ZM6.5329 5.40442C6.65259 5.40442 6.76737 5.45618 6.852 5.54832C6.93664 5.64046 6.98418 5.76542 6.98418 5.89573V11.7914C6.98418 11.9217 6.93664 12.0467 6.852 12.1388C6.76737 12.231 6.65259 12.2827 6.5329 12.2827C6.41321 12.2827 6.29842 12.231 6.21379 12.1388C6.12916 12.0467 6.08161 11.9217 6.08161 11.7914V5.89573C6.08161 5.76542 6.12916 5.64046 6.21379 5.54832C6.29842 5.45618 6.41321 5.40442 6.5329 5.40442ZM9.2406 5.89573C9.2406 5.76542 9.19306 5.64046 9.10842 5.54832C9.02379 5.45618 8.909 5.40442 8.78932 5.40442C8.66963 5.40442 8.55484 5.45618 8.47021 5.54832C8.38558 5.64046 8.33803 5.76542 8.33803 5.89573V11.7914C8.33803 11.9217 8.38558 12.0467 8.47021 12.1388C8.55484 12.231 8.66963 12.2827 8.78932 12.2827C8.909 12.2827 9.02379 12.231 9.10842 12.1388C9.19306 12.0467 9.2406 11.9217 9.2406 11.7914V5.89573Z" fill="#7F9E23"/>
<path fill-rule="evenodd" clip-rule="evenodd" d="M12.3998 2.94783C12.3998 3.20843 12.3047 3.45836 12.1355 3.64264C11.9662 3.82691 11.7367 3.93044 11.4973 3.93044H11.046V12.7739C11.046 13.2951 10.8558 13.795 10.5173 14.1635C10.1788 14.5321 9.71962 14.7391 9.24087 14.7391H3.82548C3.34673 14.7391 2.88759 14.5321 2.54906 14.1635C2.21053 13.795 2.02035 13.2951 2.02035 12.7739V3.93044H1.56907C1.32969 3.93044 1.10012 3.82691 0.930859 3.64264C0.761595 3.45836 0.666504 3.20843 0.666504 2.94783V1.96522C0.666504 1.70461 0.761595 1.45468 0.930859 1.27041C1.10012 1.08613 1.32969 0.982609 1.56907 0.982609H4.72804C4.72804 0.722005 4.82314 0.472074 4.9924 0.2878C5.16166 0.103525 5.39123 0 5.63061 0L7.43574 0C7.67511 0 7.90468 0.103525 8.07395 0.2878C8.24321 0.472074 8.3383 0.722005 8.3383 0.982609H11.4973C11.7367 0.982609 11.9662 1.08613 12.1355 1.27041C12.3047 1.45468 12.3998 1.70461 12.3998 1.96522V2.94783ZM3.02942 3.93044L2.92291 3.98841V12.7739C2.92291 13.0345 3.01801 13.2845 3.18727 13.4687C3.35653 13.653 3.5861 13.7565 3.82548 13.7565H9.24087C9.48024 13.7565 9.70981 13.653 9.87908 13.4687C10.0483 13.2845 10.1434 13.0345 10.1434 12.7739V3.98841L10.0369 3.93044H3.02942ZM1.56907 2.94783V1.96522H11.4973V2.94783H1.56907Z" fill="#7F9E23"/>
</svg>
