<svg width="13" height="14" viewBox="0 0 13 14" fill="none" xmlns="http://www.w3.org/2000/svg">
<path d="M9.16028 2.87345L10.4892 4.28535L9.16028 2.87345ZM10.0149 1.62961L6.42143 5.44916C6.23576 5.64623 6.10913 5.89733 6.05751 6.17078L5.72559 7.93683L7.38709 7.58335C7.64434 7.52866 7.88027 7.39461 8.06599 7.1972L11.6594 3.37765C11.7674 3.26287 11.8531 3.12661 11.9115 2.97665C11.97 2.82668 12 2.66595 12 2.50363C12 2.34131 11.97 2.18058 11.9115 2.03061C11.8531 1.88065 11.7674 1.74439 11.6594 1.62961C11.5514 1.51483 11.4233 1.42378 11.2822 1.36167C11.1411 1.29955 10.9899 1.26758 10.8372 1.26758C10.6844 1.26758 10.5332 1.29955 10.3921 1.36167C10.251 1.42378 10.1229 1.51483 10.0149 1.62961V1.62961Z" stroke="#7F9E23" stroke-width="1.5" stroke-linecap="round" stroke-linejoin="round"/>
<path d="M10.7454 9.27079V11.2716C10.7454 11.6254 10.6131 11.9646 10.3778 12.2148C10.1425 12.4649 9.82327 12.6055 9.49045 12.6055H2.58841C2.25559 12.6055 1.93639 12.4649 1.70105 12.2148C1.46571 11.9646 1.3335 11.6254 1.3335 11.2716V3.93531C1.3335 3.58155 1.46571 3.24227 1.70105 2.99212C1.93639 2.74197 2.25559 2.60144 2.58841 2.60144H4.47078" stroke="#7F9E23" stroke-width="1.5" stroke-linecap="round" stroke-linejoin="round"/>
</svg>
