<svg width="233" height="232" viewBox="0 0 233 232" fill="none" xmlns="http://www.w3.org/2000/svg">
<path d="M228.232 193.98C225.798 198.26 222.268 201.814 218.005 204.276C213.742 206.739 208.9 208.022 203.977 207.992H144.964L148.486 211.516C150.706 213.773 151.944 216.816 151.931 219.981C151.917 223.147 150.654 226.179 148.415 228.417C146.176 230.655 143.144 231.918 139.978 231.931C136.812 231.943 133.77 230.704 131.514 228.484L107.52 204.482C107.241 204.203 106.976 203.911 106.726 203.605C106.668 203.535 106.62 203.46 106.564 203.389C106.378 203.152 106.194 202.913 106.026 202.662C105.978 202.592 105.939 202.516 105.893 202.443C105.725 202.186 105.567 201.922 105.42 201.653C105.39 201.598 105.367 201.54 105.338 201.483C105.188 201.192 105.044 200.897 104.917 200.593C104.898 200.547 104.885 200.501 104.867 200.456C104.738 200.139 104.622 199.816 104.521 199.489C104.505 199.436 104.495 199.381 104.479 199.328C104.387 199.008 104.301 198.685 104.235 198.355C104.212 198.237 104.201 198.115 104.181 197.996C104.136 197.729 104.087 197.463 104.061 197.19C104.024 196.818 104.005 196.444 104.004 196.07C104.004 196.043 104 196.018 104 195.992V195.99C104 195.591 104.02 195.192 104.06 194.795C104.092 194.475 104.146 194.16 104.202 193.847C104.215 193.775 104.221 193.703 104.235 193.632C104.307 193.269 104.399 192.915 104.503 192.566C104.51 192.543 104.513 192.519 104.521 192.496C104.628 192.148 104.751 191.805 104.89 191.468L104.917 191.393C105.047 191.078 105.197 190.771 105.353 190.47C105.377 190.424 105.396 190.376 105.421 190.33C105.566 190.059 105.728 189.799 105.893 189.54C105.939 189.468 105.979 189.39 106.028 189.319C106.186 189.083 106.36 188.859 106.534 188.635C106.601 188.549 106.66 188.458 106.729 188.375C106.944 188.113 107.174 187.865 107.409 187.623C107.446 187.585 107.478 187.543 107.516 187.506L131.516 163.514C133.773 161.294 136.815 160.056 139.981 160.069C143.147 160.082 146.179 161.346 148.417 163.585C150.655 165.824 151.918 168.856 151.931 172.022C151.943 175.187 150.704 178.23 148.484 180.486L144.977 183.992H203.977C204.679 183.992 205.37 183.807 205.978 183.455C206.586 183.104 207.091 182.598 207.442 181.989C207.793 181.381 207.977 180.69 207.977 179.988C207.976 179.285 207.79 178.595 207.438 177.987L187.49 143.525C185.895 140.77 185.461 137.495 186.281 134.42C187.101 131.345 189.11 128.722 191.864 127.128C194.619 125.533 197.894 125.098 200.969 125.919C204.044 126.739 206.667 128.747 208.262 131.502L228.21 165.965C230.701 170.212 232.017 175.045 232.021 179.969C232.025 184.893 230.717 189.728 228.232 193.979V193.98ZM116 24C116.704 23.9867 117.398 24.1655 118.008 24.5172C118.618 24.8688 119.121 25.3801 119.462 25.996L148.912 76.874L144.165 75.602C142.64 75.1848 141.047 75.073 139.479 75.2732C137.911 75.4733 136.398 75.9814 135.026 76.7682C133.655 77.555 132.452 78.605 131.488 79.858C130.524 81.1109 129.817 82.542 129.407 84.0691C128.998 85.5962 128.894 87.1891 129.103 88.7564C129.311 90.3237 129.826 91.8343 130.62 93.2016C131.414 94.5689 132.47 95.7659 133.728 96.7237C134.986 97.6816 136.421 98.3814 137.95 98.783L170.728 107.571C170.738 107.574 170.749 107.575 170.76 107.577C171.103 107.669 171.456 107.725 171.807 107.786C172.929 108.006 174.08 108.043 175.214 107.895C175.316 107.883 175.417 107.871 175.519 107.856C175.962 107.795 176.402 107.709 176.836 107.598C176.911 107.578 176.985 107.553 177.06 107.532C177.456 107.421 177.846 107.289 178.229 107.138C178.311 107.106 178.393 107.078 178.474 107.044C178.9 106.863 179.316 106.658 179.719 106.43C179.761 106.406 179.806 106.39 179.848 106.366C179.908 106.331 179.963 106.288 180.024 106.252C180.241 106.122 180.453 105.983 180.661 105.839C180.766 105.767 180.872 105.696 180.974 105.621C181.218 105.441 181.455 105.249 181.686 105.051C181.75 104.994 181.816 104.941 181.88 104.883C182.126 104.66 182.364 104.427 182.592 104.183C182.682 104.088 182.765 103.988 182.851 103.89C183.006 103.712 183.159 103.533 183.305 103.346C183.389 103.237 183.469 103.127 183.549 103.016C183.686 102.827 183.818 102.634 183.945 102.435C184.015 102.325 184.085 102.215 184.15 102.105C184.276 101.892 184.394 101.673 184.507 101.452C184.56 101.348 184.617 101.246 184.666 101.141C184.783 100.895 184.888 100.641 184.989 100.385C185.023 100.299 185.062 100.215 185.094 100.129C185.219 99.789 185.332 99.444 185.427 99.088L194.217 66.3C194.643 64.7722 194.763 63.1749 194.568 61.6006C194.374 60.0263 193.869 58.5062 193.083 57.1282C192.297 55.7503 191.246 54.5418 189.99 53.5727C188.734 52.6036 187.299 51.8931 185.766 51.4823C184.234 51.0715 182.636 50.9685 181.064 51.1794C179.491 51.3902 177.977 51.9107 176.607 52.7107C175.237 53.5107 174.04 54.5744 173.083 55.8401C172.127 57.1059 171.432 58.5487 171.037 60.085L169.734 64.94L140.234 13.973C137.774 9.72361 134.24 6.19565 129.987 3.74302C125.734 1.29039 120.91 -0.000671387 116 -0.000671387C111.09 -0.000671387 106.267 1.29039 102.013 3.74302C97.76 6.19565 94.2263 9.72361 91.7668 13.973L71.8238 48.427C70.2294 51.1816 69.7946 54.4566 70.615 57.5318C71.4354 60.6069 73.4437 63.2302 76.1983 64.8245C78.9528 66.4189 82.2279 66.8537 85.303 66.0333C88.3781 65.2129 91.0014 63.2046 92.5958 60.45L112.538 25.996C112.879 25.3801 113.382 24.8688 113.992 24.5172C114.601 24.1655 115.296 23.9867 116 24V24ZM67.9998 183.992H28.0228C27.3203 183.992 26.6302 183.807 26.022 183.455C25.4138 183.104 24.9089 182.598 24.5581 181.99C24.2073 181.381 24.0229 180.691 24.0235 179.988C24.0242 179.286 24.2098 178.596 24.5618 177.988L54.0628 127.02L55.3648 131.877C55.7728 133.399 56.4767 134.826 57.4363 136.076C58.3958 137.326 59.5921 138.375 60.957 139.163C62.3219 139.951 63.8286 140.462 65.391 140.667C66.9535 140.873 68.5411 140.769 70.0633 140.361C71.5854 139.952 73.0123 139.249 74.2624 138.289C75.5125 137.329 76.5614 136.133 77.3492 134.768C78.1369 133.403 78.6481 131.897 78.8536 130.334C79.0591 128.772 78.9548 127.184 78.5468 125.662L69.7548 92.873C69.7328 92.791 69.7008 92.713 69.6768 92.63C69.5945 92.338 69.5015 92.0491 69.3978 91.764C69.3548 91.649 69.3008 91.541 69.2538 91.428C69.1518 91.178 69.0498 90.928 68.9308 90.685C68.8848 90.591 68.8298 90.503 68.7808 90.41C68.6499 90.1533 68.5099 89.9015 68.3608 89.655C68.3178 89.587 68.2698 89.525 68.2268 89.458C68.0568 89.196 67.8828 88.937 67.6918 88.688C67.6528 88.636 67.6078 88.588 67.5678 88.538C67.3675 88.2807 67.1567 88.0318 66.9358 87.792C66.8858 87.739 66.8298 87.692 66.7788 87.638C66.5588 87.412 66.3358 87.188 66.0968 86.978C65.9998 86.892 65.8938 86.816 65.7938 86.734C65.5908 86.567 65.3918 86.398 65.1758 86.243C64.9508 86.082 64.7138 85.937 64.4778 85.791C64.3748 85.727 64.2808 85.656 64.1758 85.595L64.1678 85.591L64.1618 85.587C63.8171 85.3883 63.4648 85.2077 63.1048 85.045C60.582 83.9019 57.7408 83.6693 55.0658 84.387L55.0558 84.39L22.2778 93.179C19.2038 94.0034 16.5832 96.0152 14.9925 98.7718C13.4018 101.528 12.9713 104.804 13.7958 107.878C14.6202 110.952 16.632 113.573 19.3886 115.163C22.1452 116.754 25.4208 117.184 28.4948 116.36L33.2388 115.088L3.78976 165.966C1.32643 170.222 0.0274324 175.052 0.0234467 179.969C0.019461 184.887 1.31063 189.719 3.76705 193.979C6.22347 198.239 9.7585 201.777 14.0165 204.237C18.2745 206.697 23.1052 207.992 28.0228 207.992H67.9998C71.1824 207.992 74.2346 206.728 76.485 204.477C78.7355 202.227 79.9998 199.175 79.9998 195.992C79.9998 192.809 78.7355 189.757 76.485 187.507C74.2346 185.256 71.1824 183.992 67.9998 183.992V183.992Z" fill="black"/>
</svg>
