<svg width="16" height="16" viewBox="0 0 16 16" fill="none" xmlns="http://www.w3.org/2000/svg">
<path fill-rule="evenodd" clip-rule="evenodd" d="M4.68105 3H2.00005V2H5.50005L6.00005 2.5V6H5.00005V4C4.10377 4.67248 3.45936 5.62654 3.17019 6.7091C2.88103 7.79166 2.96388 8.93998 3.40546 9.96981C3.84703 10.9997 4.62173 11.8513 5.60526 12.3882C6.5888 12.925 7.72415 13.116 8.82919 12.9303C9.93422 12.7447 10.9449 12.1932 11.699 11.3645C12.4531 10.5357 12.907 9.47766 12.9878 8.36006C13.0686 7.24247 12.7717 6.13011 12.1447 5.20147C11.5177 4.27282 10.5969 3.5817 9.53005 3.239L9.83205 2.285C11.1267 2.70013 12.2419 3.54263 12.9951 4.67448C13.7483 5.80633 14.0948 7.16042 13.9777 8.51493C13.8607 9.86943 13.2871 11.144 12.351 12.1299C11.4148 13.1158 10.1716 13.7546 8.82494 13.9415C7.4783 14.1284 6.1081 13.8524 4.93881 13.1588C3.76952 12.4652 2.87047 11.395 2.38894 10.1235C1.90741 8.85213 1.87196 7.45486 2.28839 6.16066C2.70482 4.86645 3.54844 3.75205 4.68105 3Z" fill="#7F9E23"/>
</svg>
