<svg width="24" height="24" viewBox="0 0 24 24" fill="none" xmlns="http://www.w3.org/2000/svg">
<path fill-rule="evenodd" clip-rule="evenodd" d="M12.0002 23.0002C11.8013 23 11.6107 22.9208 11.4702 22.7802L8.22015 19.5302C8.14647 19.4615 8.08736 19.3787 8.04637 19.2867C8.00538 19.1947 7.98334 19.0954 7.98156 18.9947C7.97979 18.894 7.99831 18.7939 8.03603 18.7006C8.07375 18.6072 8.1299 18.5223 8.20112 18.4511C8.27233 18.3799 8.35717 18.3238 8.45056 18.286C8.54394 18.2483 8.64397 18.2298 8.74468 18.2316C8.84538 18.2333 8.94469 18.2554 9.03669 18.2964C9.12869 18.3374 9.21149 18.3965 9.28015 18.4702L12.0002 21.1902L14.7202 18.4702C14.7888 18.3965 14.8716 18.3374 14.9636 18.2964C15.0556 18.2554 15.1549 18.2333 15.2556 18.2316C15.3563 18.2298 15.4564 18.2483 15.5498 18.286C15.6431 18.3238 15.728 18.3799 15.7992 18.4511C15.8704 18.5223 15.9266 18.6072 15.9643 18.7006C16.002 18.7939 16.0205 18.894 16.0187 18.9947C16.017 19.0954 15.9949 19.1947 15.9539 19.2867C15.9129 19.3787 15.8538 19.4615 15.7802 19.5302L12.5302 22.7802C12.3896 22.9208 12.199 23 12.0002 23.0002Z" fill="#7F9E23"/>
<path fill-rule="evenodd" clip-rule="evenodd" d="M12 22.2498C11.8011 22.2498 11.6103 22.1708 11.4697 22.0302C11.329 21.8895 11.25 21.6987 11.25 21.4998V15.7498C11.25 15.5509 11.329 15.3602 11.4697 15.2195C11.6103 15.0788 11.8011 14.9998 12 14.9998C12.1989 14.9998 12.3897 15.0788 12.5303 15.2195C12.671 15.3602 12.75 15.5509 12.75 15.7498V21.4998C12.75 21.6987 12.671 21.8895 12.5303 22.0302C12.3897 22.1708 12.1989 22.2498 12 22.2498ZM10.75 11.9998C10.75 11.8009 10.829 11.6102 10.9697 11.4695C11.1103 11.3288 11.3011 11.2498 11.5 11.2498H12.5C12.6989 11.2498 12.8897 11.3288 13.0303 11.4695C13.171 11.6102 13.25 11.8009 13.25 11.9998C13.25 12.1987 13.171 12.3895 13.0303 12.5302C12.8897 12.6708 12.6989 12.7498 12.5 12.7498H11.5C11.3011 12.7498 11.1103 12.6708 10.9697 12.5302C10.829 12.3895 10.75 12.1987 10.75 11.9998ZM2.75 11.9998C2.75 11.8009 2.82902 11.6102 2.96967 11.4695C3.11032 11.3288 3.30109 11.2498 3.5 11.2498H4.5C4.69891 11.2498 4.88968 11.3288 5.03033 11.4695C5.17098 11.6102 5.25 11.8009 5.25 11.9998C5.25 12.1987 5.17098 12.3895 5.03033 12.5302C4.88968 12.6708 4.69891 12.7498 4.5 12.7498H3.5C3.30109 12.7498 3.11032 12.6708 2.96967 12.5302C2.82902 12.3895 2.75 12.1987 2.75 11.9998ZM14.75 11.9998C14.75 11.8009 14.829 11.6102 14.9697 11.4695C15.1103 11.3288 15.3011 11.2498 15.5 11.2498H16.5C16.6989 11.2498 16.8897 11.3288 17.0303 11.4695C17.171 11.6102 17.25 11.8009 17.25 11.9998C17.25 12.1987 17.171 12.3895 17.0303 12.5302C16.8897 12.6708 16.6989 12.7498 16.5 12.7498H15.5C15.3011 12.7498 15.1103 12.6708 14.9697 12.5302C14.829 12.3895 14.75 12.1987 14.75 11.9998ZM6.75 11.9998C6.75 11.8009 6.82902 11.6102 6.96967 11.4695C7.11032 11.3288 7.30109 11.2498 7.5 11.2498H8.5C8.69891 11.2498 8.88968 11.3288 9.03033 11.4695C9.17098 11.6102 9.25 11.8009 9.25 11.9998C9.25 12.1987 9.17098 12.3895 9.03033 12.5302C8.88968 12.6708 8.69891 12.7498 8.5 12.7498H7.5C7.30109 12.7498 7.11032 12.6708 6.96967 12.5302C6.82902 12.3895 6.75 12.1987 6.75 11.9998ZM18.75 11.9998C18.75 11.8009 18.829 11.6102 18.9697 11.4695C19.1103 11.3288 19.3011 11.2498 19.5 11.2498H20.5C20.6989 11.2498 20.8897 11.3288 21.0303 11.4695C21.171 11.6102 21.25 11.8009 21.25 11.9998C21.25 12.1987 21.171 12.3895 21.0303 12.5302C20.8897 12.6708 20.6989 12.7498 20.5 12.7498H19.5C19.3011 12.7498 19.1103 12.6708 18.9697 12.5302C18.829 12.3895 18.75 12.1987 18.75 11.9998ZM11.47 1.21983C11.6106 1.07938 11.8012 1.00049 12 1.00049C12.1988 1.00049 12.3894 1.07938 12.53 1.21983L15.78 4.46983C15.9125 4.612 15.9846 4.80005 15.9812 4.99435C15.9777 5.18865 15.899 5.37404 15.7616 5.51145C15.6242 5.64886 15.4388 5.72758 15.2445 5.731C15.0502 5.73443 14.8622 5.66231 14.72 5.52983L12 2.80983L9.28 5.52983C9.13783 5.66231 8.94978 5.73443 8.75548 5.731C8.56118 5.72758 8.37579 5.64886 8.23838 5.51145C8.10097 5.37404 8.02225 5.18865 8.01882 4.99435C8.0154 4.80005 8.08752 4.612 8.22 4.46983L11.47 1.21983Z" fill="#7F9E23"/>
<path fill-rule="evenodd" clip-rule="evenodd" d="M12 1.5C12.1989 1.5 12.3897 1.57902 12.5303 1.71967C12.671 1.86032 12.75 2.05109 12.75 2.25V8.25C12.75 8.44891 12.671 8.63968 12.5303 8.78033C12.3897 8.92098 12.1989 9 12 9C11.8011 9 11.6103 8.92098 11.4697 8.78033C11.329 8.63968 11.25 8.44891 11.25 8.25V2.25C11.25 2.05109 11.329 1.86032 11.4697 1.71967C11.6103 1.57902 11.8011 1.5 12 1.5Z" fill="#7F9E23"/>
</svg>
