<svg width="10" height="10" viewBox="0 0 10 10" fill="none" xmlns="http://www.w3.org/2000/svg">
<path d="M5.4167 6.3665V4.37484C5.4167 4.26433 5.3728 4.15835 5.29466 4.08021C5.21652 4.00207 5.11054 3.95817 5.00003 3.95817C4.88952 3.95817 4.78354 4.00207 4.7054 4.08021C4.62726 4.15835 4.58336 4.26433 4.58336 4.37484V6.3665C4.45742 6.43922 4.35269 6.54362 4.27959 6.66935C4.2065 6.79508 4.16758 6.93774 4.1667 7.08317C4.1667 7.30418 4.2545 7.51615 4.41078 7.67243C4.56706 7.82871 4.77902 7.9165 5.00003 7.9165C5.22105 7.9165 5.43301 7.82871 5.58929 7.67243C5.74557 7.51615 5.83336 7.30418 5.83336 7.08317C5.83249 6.93774 5.79357 6.79508 5.72047 6.66935C5.64737 6.54362 5.54265 6.43922 5.4167 6.3665ZM6.87503 5.4165V2.2915C6.87503 1.79422 6.67749 1.31731 6.32586 0.965679C5.97423 0.614048 5.49731 0.416504 5.00003 0.416504C4.50275 0.416504 4.02584 0.614048 3.67421 0.965679C3.32258 1.31731 3.12503 1.79422 3.12503 2.2915V5.4165C2.83705 5.74284 2.63925 6.1387 2.5512 6.56493C2.46316 6.99117 2.48791 7.433 2.62301 7.84674C2.75812 8.26047 2.99889 8.63176 3.32152 8.92389C3.64415 9.21601 4.03746 9.41885 4.46253 9.51234C4.63911 9.55258 4.81905 9.5763 5.00003 9.58317C5.48363 9.58542 5.95749 9.44736 6.3642 9.18573C6.77092 8.92409 7.09302 8.55011 7.29147 8.10911C7.48992 7.66811 7.55621 7.17901 7.48229 6.70109C7.40838 6.22317 7.19744 5.77695 6.87503 5.4165ZM6.0417 8.36234C5.71018 8.65629 5.27546 8.8065 4.83319 8.77993C4.39092 8.75336 3.97731 8.55219 3.68337 8.22067C3.38942 7.88915 3.2392 7.45444 3.26577 7.01216C3.29234 6.56989 3.49351 6.15629 3.82503 5.86234C3.8644 5.82375 3.89572 5.77773 3.91718 5.72695C3.93864 5.67617 3.9498 5.62163 3.95003 5.5665V2.2915C3.95003 2.01524 4.05978 1.75028 4.25513 1.55493C4.45048 1.35958 4.71543 1.24984 4.9917 1.24984C5.26797 1.24984 5.53292 1.35958 5.72827 1.55493C5.92362 1.75028 6.03336 2.01524 6.03336 2.2915V5.59984C6.03359 5.65496 6.04476 5.7095 6.06622 5.76028C6.08767 5.81106 6.11899 5.85708 6.15836 5.89567C6.32868 6.0602 6.46197 6.25914 6.54937 6.47922C6.63677 6.69931 6.67627 6.9355 6.66523 7.17205C6.65419 7.4086 6.59287 7.64008 6.48535 7.85107C6.37784 8.06206 6.22659 8.24772 6.0417 8.39567V8.36234Z" fill="#7F9E23"/>
</svg>
