<svg width="59" height="50" viewBox="0 0 59 50" fill="none" xmlns="http://www.w3.org/2000/svg">
<path opacity="0.15" d="M59 19.0537V50.0002H18.7845L0.747002 31.9627C0.708027 31.7612 0.688477 31.5531 0.688477 31.3387C0.688477 29.7137 1.79348 28.3358 3.28848 27.9197C2.84643 27.0683 2.632 26.0737 2.7295 25.0208C2.94393 22.6612 4.78995 20.6983 7.13643 20.3408C7.897 20.2303 8.6379 20.2822 9.31393 20.4708C9.29438 20.1718 9.27495 19.8727 9.27495 19.5737C9.27495 13.7367 14.0135 9.00475 19.8504 9.00475C20.4744 9.00475 21.0919 9.06327 21.6833 9.16725C23.9648 3.57724 29.6134 -0.270831 36.1004 0.138719C38.0375 0.262245 39.8769 0.77577 41.5475 1.60122L43.8095 3.86327L48.2099 8.26385L59 19.0537Z" fill="#040000"/>
<path d="M44.3036 3.36881L31.7586 15.9138C31.1281 16.0178 30.5171 16.1932 29.9451 16.4403C28.788 12.6963 25.6096 9.85573 21.6836 9.16676C23.9651 3.57676 29.6136 -0.27132 36.1006 0.138231C38.0377 0.261757 39.8771 0.775283 41.5477 1.60073C42.529 2.08836 43.452 2.67983 44.3036 3.36881Z" fill="#FBE2A7"/>
<path d="M21.6835 9.16702C21.521 9.56997 21.3714 9.986 21.2416 10.4085C20.7866 10.3435 20.3251 10.3045 19.8505 10.3045C14.7351 10.3045 10.5816 14.458 10.5816 19.5735C10.5816 19.84 10.588 20.1 10.6141 20.36L10.7701 22.2125L8.97611 21.725C8.63156 21.6275 8.28053 21.5819 7.93611 21.5819C7.73463 21.5819 7.53316 21.5948 7.33155 21.6273C5.57655 21.8938 4.18553 23.3693 4.02303 25.1438C3.95155 25.8978 4.10098 26.6518 4.44553 27.3213L5.18655 28.7448L3.6395 29.1738C2.6645 29.4403 1.98848 30.3309 1.98848 31.3384C1.98848 32.5798 2.99598 33.5873 4.23745 33.5873H14.085L12.785 34.8874H4.23745C4.0229 34.8874 3.81495 34.8678 3.61348 34.8288C2.15745 34.5688 1.0004 33.4184 0.747002 31.9623C0.708027 31.7609 0.688477 31.5528 0.688477 31.3384C0.688477 29.7134 1.79348 28.3354 3.28848 27.9194C2.84643 27.0679 2.632 26.0734 2.7295 25.0204C2.94393 22.6609 4.78995 20.6979 7.13643 20.3404C7.897 20.23 8.6379 20.2819 9.31393 20.4704C9.29438 20.1714 9.27495 19.8723 9.27495 19.5734C9.27495 13.7363 14.0135 9.00439 19.8504 9.00439C20.4744 9.00452 21.092 9.06292 21.6835 9.16702Z" fill="url(#paint0_linear)"/>
<path d="M28.7047 16.8229L29.1319 18.2L29.7259 17.946L31.7591 15.9129C31.1271 16.018 30.5188 16.1933 29.9465 16.4379C28.7872 12.6997 25.608 9.85287 21.6858 9.16504C21.5202 9.57104 21.3728 9.98605 21.2437 10.4093C24.7284 10.9299 27.6356 13.3743 28.7047 16.8229Z" fill="#F0DB70"/>
<path d="M28.7047 16.8229L29.1319 18.2L29.7259 17.946L31.7591 15.9129C31.1271 16.018 30.5188 16.1933 29.9465 16.4379C28.7872 12.6997 25.608 9.85287 21.6858 9.16504C21.5202 9.57104 21.3728 9.98605 21.2437 10.4093C24.7284 10.9299 27.6356 13.3743 28.7047 16.8229Z" fill="url(#paint1_linear)"/>
<path d="M20.6385 15.6021C20.5238 13.786 20.7469 12.0377 21.2437 10.4088C20.7873 10.3405 20.3219 10.3018 19.8485 10.3018C14.7367 10.3018 10.5784 14.4607 10.5784 19.5725C10.5784 19.8378 10.5904 20.1004 10.612 20.3599L10.7675 22.2131L8.97368 21.7225C8.63345 21.6294 8.28306 21.5822 7.9333 21.5822C7.73398 21.5822 7.53149 21.5977 7.33218 21.6279C5.57515 21.8942 4.18247 23.3716 4.02124 25.1407C3.95142 25.899 4.09868 26.6524 4.44526 27.3198L5.18477 28.743L3.63975 29.1721C2.66665 29.4422 1.98682 30.3331 1.98682 31.3385C1.98682 32.5782 2.99546 33.5869 4.23579 33.5869H14.0846L23.8711 23.8003C22.0201 21.5235 20.8336 18.6894 20.6385 15.6021Z" fill="url(#paint2_linear)"/>
<path opacity="0.3" d="M20.6385 15.6021C20.5238 13.786 20.7469 12.0377 21.2437 10.4088C20.7873 10.3405 20.3219 10.3018 19.8485 10.3018C14.7367 10.3018 10.5784 14.4607 10.5784 19.5725C10.5784 19.8378 10.5904 20.1004 10.612 20.3599L10.7675 22.2131L8.97368 21.7225C8.63345 21.6294 8.28306 21.5822 7.9333 21.5822C7.73398 21.5822 7.53149 21.5977 7.33218 21.6279C5.57515 21.8942 4.18247 23.3716 4.02124 25.1407C3.95142 25.899 4.09868 26.6524 4.44526 27.3198L5.18477 28.743L3.63975 29.1721C2.66665 29.4422 1.98682 30.3331 1.98682 31.3385C1.98682 32.5782 2.99546 33.5869 4.23579 33.5869H14.0846L23.8711 23.8003C22.0201 21.5235 20.8336 18.6894 20.6385 15.6021Z" fill="url(#paint3_linear)"/>
<path d="M20.6384 15.6025C20.8336 18.69 22.0201 21.5239 23.8709 23.8008L29.7257 17.946L29.1317 18.2L28.7045 16.8229C27.6353 13.3743 24.7281 10.9301 21.2435 10.4092C20.7469 12.0381 20.5237 13.7863 20.6384 15.6025Z" fill="#F0DB70"/>
<path d="M20.6384 15.6025C20.8336 18.69 22.0201 21.5239 23.8709 23.8008L29.7257 17.946L29.1317 18.2L28.7045 16.8229C27.6353 13.3743 24.7281 10.9301 21.2435 10.4092C20.7469 12.0381 20.5237 13.7863 20.6384 15.6025Z" fill="url(#paint4_linear)"/>
<path opacity="0.3" d="M20.6384 15.6025C20.8336 18.69 22.0201 21.5239 23.8709 23.8008L29.7257 17.946L29.1317 18.2L28.7045 16.8229C27.6353 13.3743 24.7281 10.9301 21.2435 10.4092C20.7469 12.0381 20.5237 13.7863 20.6384 15.6025Z" fill="url(#paint5_linear)"/>
<path d="M34.2223 15.881C37.7332 16.3738 40.5303 19.2254 40.9649 22.7439C41.1934 24.5949 40.7848 26.3398 39.9297 27.7901H41.4174C46.5837 25.3232 50.0695 19.903 49.6783 13.7119C49.4158 9.55796 47.3652 5.85981 44.302 3.36963L31.7593 15.9123C32.5475 15.7813 33.3736 15.7619 34.2223 15.881Z" fill="#F0DB70"/>
<path d="M52.308 31.3385C52.308 29.3869 50.7111 27.79 48.7595 27.79H41.4174C40.2614 28.342 39.0219 28.7452 37.7219 28.9765L37.655 29.09H48.7596C49.9993 29.09 51.008 30.0987 51.008 31.3386C51.008 32.5783 49.9993 33.587 48.7596 33.587H14.0847L12.7847 34.887H48.7595C50.7111 34.887 52.308 33.2902 52.308 31.3385Z" fill="#DFDBCB"/>
<path d="M40.9649 22.7438C40.5303 19.2253 37.7331 16.3736 34.2222 15.8808C33.3736 15.7617 32.5475 15.7812 31.7592 15.9123L29.7261 17.9455L30.4574 17.6326C31.2845 17.2791 32.1643 17.0997 33.0714 17.0997C33.3926 17.0997 33.7189 17.1225 34.0413 17.168C36.946 17.5758 39.315 19.9876 39.6743 22.9031C39.859 24.3958 39.56 25.8573 38.8097 27.13L37.722 28.9764C39.022 28.7452 40.2614 28.3419 41.4174 27.7899H39.9298C40.7847 26.3396 41.1934 24.5949 40.9649 22.7438Z" fill="#F4F4C5"/>
<path d="M48.7594 29.0903H37.6548L37.7217 28.9768L38.8095 27.1304C39.5598 25.8577 39.8587 24.3961 39.674 22.9035C39.3148 19.988 36.9458 17.5763 34.0411 17.1684C33.7187 17.1231 33.3924 17.1001 33.0712 17.1001C32.1641 17.1001 31.2843 17.2795 30.4572 17.633L29.7259 17.9459L23.871 23.8007L14.0845 33.5872H48.7594C49.9991 33.5872 51.0078 32.5786 51.0078 31.3389C51.0078 30.099 49.9993 29.0903 48.7594 29.0903Z" fill="url(#paint6_linear)"/>
<defs>
<linearGradient id="paint0_linear" x1="11.1859" y1="41.5255" x2="11.1859" y2="21.7301" gradientUnits="userSpaceOnUse">
<stop stop-color="#C2BD9C"/>
<stop offset="1" stop-color="#FEF7E8"/>
</linearGradient>
<linearGradient id="paint1_linear" x1="26.5014" y1="41.5258" x2="26.5014" y2="21.7289" gradientUnits="userSpaceOnUse">
<stop stop-color="#C2BD9C"/>
<stop offset="1" stop-color="#FEF7E8"/>
</linearGradient>
<linearGradient id="paint2_linear" x1="12.9289" y1="41.5254" x2="12.9289" y2="21.7285" gradientUnits="userSpaceOnUse">
<stop stop-color="#C2BD9C"/>
<stop offset="1" stop-color="#FEF7E8"/>
</linearGradient>
<linearGradient id="paint3_linear" x1="21.5754" y1="2.88156" x2="16.5379" y2="17.0191" gradientUnits="userSpaceOnUse">
<stop stop-color="#C2BD9C"/>
<stop offset="1" stop-color="#FEF7E8"/>
</linearGradient>
<linearGradient id="paint4_linear" x1="25.1674" y1="41.5259" x2="25.1674" y2="21.729" gradientUnits="userSpaceOnUse">
<stop stop-color="#C2BD9C"/>
<stop offset="1" stop-color="#FEF7E8"/>
</linearGradient>
<linearGradient id="paint5_linear" x1="1.98668" y1="17.105" x2="51.0077" y2="17.105" gradientUnits="userSpaceOnUse">
<stop stop-color="#C2BD9C"/>
<stop offset="1" stop-color="#FEF7E8"/>
</linearGradient>
<linearGradient id="paint6_linear" x1="26.8739" y1="26.4287" x2="53.6864" y2="37.4787" gradientUnits="userSpaceOnUse">
<stop stop-color="#EEE9D2"/>
<stop offset="1" stop-color="#FEF7E8"/>
</linearGradient>
</defs>
</svg>
