<svg width="10" height="10" viewBox="0 0 10 10" fill="none" xmlns="http://www.w3.org/2000/svg">
<path d="M9.37015 4.94541C9.19451 3.97005 8.70137 3.08012 7.96747 2.4141C7.23358 1.74809 6.30011 1.34336 5.31234 1.26291V0.623535H4.68734V1.26291C3.69956 1.34336 2.76609 1.74809 2.0322 2.4141C1.2983 3.08012 0.805164 3.97005 0.629523 4.94541C0.619409 5.00421 0.62634 5.06468 0.649497 5.11967C0.672655 5.17466 0.711071 5.22187 0.760204 5.25572C0.809338 5.28957 0.867136 5.30865 0.926766 5.3107C0.986397 5.31275 1.04537 5.29768 1.09671 5.26729C1.32636 5.1077 1.59565 5.01469 1.87484 4.99854C2.14019 5.00496 2.39924 5.08075 2.62621 5.21836C2.85318 5.35597 3.04018 5.55061 3.16859 5.78291C3.19839 5.82674 3.23846 5.86261 3.2853 5.8874C3.33214 5.9122 3.38434 5.92516 3.43734 5.92516C3.49033 5.92516 3.54253 5.9122 3.58937 5.8874C3.63621 5.86261 3.67628 5.82674 3.70609 5.78291C3.8109 5.59894 3.95188 5.43809 4.12051 5.31005C4.28915 5.18201 4.48197 5.08944 4.68734 5.03791V7.96729C4.68734 8.17449 4.60503 8.3732 4.45851 8.51971C4.312 8.66623 4.11329 8.74854 3.90609 8.74854C3.69889 8.74854 3.50017 8.66623 3.35366 8.51971C3.20715 8.3732 3.12484 8.17449 3.12484 7.96729V7.81104H2.49984V7.96729C2.49984 8.34025 2.64799 8.69793 2.91172 8.96165C3.17544 9.22538 3.53312 9.37354 3.90609 9.37354C4.27905 9.37354 4.63673 9.22538 4.90045 8.96165C5.16418 8.69793 5.31234 8.34025 5.31234 7.96729V5.0376C5.51776 5.0892 5.7106 5.18187 5.87925 5.31002C6.04789 5.43816 6.18883 5.59913 6.29359 5.78322C6.32126 5.82985 6.36058 5.86848 6.4077 5.89532C6.45482 5.92215 6.50811 5.93626 6.56234 5.93626C6.61656 5.93626 6.66985 5.92215 6.71697 5.89532C6.76409 5.86848 6.80342 5.82985 6.83109 5.78322C6.95946 5.55086 7.14643 5.35616 7.37341 5.2185C7.60038 5.08083 7.85945 5.00499 8.12484 4.99854C8.40402 5.01469 8.67331 5.1077 8.90296 5.26729C8.95431 5.29778 9.01332 5.31292 9.073 5.31091C9.13269 5.30891 9.19055 5.28985 9.23973 5.25598C9.28892 5.22212 9.32738 5.17487 9.35054 5.11983C9.37371 5.06478 9.38062 5.00426 9.37046 4.94541H9.37015ZM1.87484 4.37354C1.71592 4.37353 1.5578 4.39594 1.40515 4.4401C1.61728 3.8492 1.96937 3.31847 2.43129 2.89328C2.89321 2.46809 3.45124 2.16109 4.05765 1.99854C3.4382 2.79714 3.10319 3.77973 3.10577 4.79041C2.7517 4.5213 2.31956 4.37495 1.87484 4.37354ZM4.99984 4.37354C4.53909 4.37566 4.09253 4.5331 3.73234 4.82041C3.7439 4.12666 3.92234 2.79229 4.99984 1.95291C6.07171 2.78947 6.25265 4.12479 6.26609 4.81947C5.9061 4.53277 5.46004 4.37568 4.99984 4.37354ZM8.12484 4.37354C7.68015 4.37486 7.24801 4.5211 6.8939 4.7901C6.89648 3.77942 6.56147 2.79682 5.94202 1.99822C6.54847 2.16081 7.10651 2.46786 7.56844 2.8931C8.03037 3.31835 8.38243 3.84914 8.59452 4.4401C8.44187 4.39594 8.28375 4.37353 8.12484 4.37354Z" fill="#7F9E23"/>
</svg>
