<svg width="21" height="21" viewBox="0 0 21 21" fill="none" xmlns="http://www.w3.org/2000/svg">
<path d="M18.5349 2.67974C18.0707 2.14721 17.5195 1.72477 16.9128 1.43656C16.3061 1.14834 15.6558 1 14.9991 1C14.3424 1 13.6921 1.14834 13.0854 1.43656C12.4787 1.72477 11.9275 2.14721 11.4633 2.67974L10.4998 3.7844L9.53626 2.67974C8.5985 1.60458 7.32662 1.00056 6.00043 1.00056C4.67423 1.00056 3.40235 1.60458 2.46459 2.67974C1.52683 3.7549 1 5.21313 1 6.73364C1 8.25415 1.52683 9.71238 2.46459 10.7875L3.42808 11.8922L10.4998 20L17.5714 11.8922L18.5349 10.7875C18.9994 10.2553 19.3678 9.62328 19.6192 8.9277C19.8706 8.23212 20 7.48657 20 6.73364C20 5.98071 19.8706 5.23516 19.6192 4.53958C19.3678 3.84399 18.9994 3.21201 18.5349 2.67974V2.67974Z" stroke="#7F9E23" stroke-width="2" stroke-linecap="round" stroke-linejoin="round"/>
</svg>
