<svg width="23" height="22" viewBox="0 0 23 22" fill="none" xmlns="http://www.w3.org/2000/svg">
<path d="M21.9816 18.2038V6.03912C21.9877 6.04276 21.9938 6.04641 21.9998 6.05008V19.5674C21.9937 19.5648 21.9877 19.5623 21.9816 19.5597V18.2038ZM17.4498 18.6965C18.268 18.6965 19.0723 18.7712 19.8298 18.9324C19.0364 18.7884 18.2313 18.7258 17.4498 18.7258C16.9426 18.7258 16.3893 18.7761 15.8249 18.8654C16.4133 18.7559 16.9743 18.6965 17.4498 18.6965ZM10.8998 19.2185V19.5395C9.45984 18.9394 7.82385 18.7258 6.3498 18.7258C4.96387 18.7258 3.2127 19.0871 1.7998 19.6452V6.04771C1.80585 6.04402 1.81191 6.04034 1.81799 6.03667V6.66746V18.2038V19.5023L3.07338 19.1707C4.20227 18.8725 5.3861 18.6965 6.3498 18.6965C7.30462 18.6965 8.47696 18.7836 9.63234 19.081L10.8816 19.4025V18.1125V6.66746V6.03667C10.8877 6.04034 10.8938 6.04402 10.8998 6.04771V19.2185ZM2.41374 5.75281L1.96534 5.95099C3.15048 5.28783 4.74496 4.99897 6.3498 4.99897C7.95465 4.99897 9.54913 5.28783 10.7343 5.95099L10.2859 5.75281C9.20848 5.27663 7.82185 5.02824 6.3498 5.02824C4.87776 5.02824 3.49113 5.27663 2.41374 5.75281ZM14.918 14.4283V5.93353L17.9634 2.87135V11.6723L14.918 14.4283Z" fill="#7F9E23" stroke="#7F9E23" stroke-width="2"/>
</svg>
