<svg width="12" height="12" viewBox="0 0 12 12" fill="none" xmlns="http://www.w3.org/2000/svg">
<g clip-path="url(#clip0)">
<path d="M1.25115 11.3275C1.25151 11.3553 1.25697 11.3826 1.26721 11.4081C1.27745 11.4336 1.29227 11.4566 1.31083 11.476C1.32938 11.4953 1.35131 11.5105 1.37536 11.5208C1.39941 11.531 1.4251 11.5361 1.45098 11.5357H10.6484C10.6743 11.5361 10.7 11.5311 10.7241 11.5208C10.7481 11.5106 10.7701 11.4954 10.7887 11.4761C10.8073 11.4567 10.8221 11.4337 10.8324 11.4082C10.8426 11.3827 10.8481 11.3553 10.8484 11.3275V11.0791C10.853 11.0041 10.8623 10.6305 10.6325 10.2172C10.4874 9.95656 10.277 9.73163 10.0069 9.54811C9.6803 9.32616 9.26473 9.16564 8.762 9.06901C8.50681 9.03053 8.25366 8.97777 8.00362 8.91094C7.3387 8.72904 7.2806 8.56799 7.28009 8.56636C7.27625 8.55046 7.27066 8.5351 7.26342 8.52062C7.25786 8.49085 7.24447 8.3777 7.27024 8.07482C7.33542 7.30528 7.72067 6.85054 8.03014 6.48513C8.12766 6.37009 8.21986 6.26101 8.29085 6.15436C8.59729 5.69421 8.62558 5.17045 8.62685 5.13797C8.628 5.08042 8.62058 5.02304 8.60487 4.96799C8.57455 4.86784 8.51822 4.80558 8.47679 4.75957C8.46698 4.74903 8.45746 4.7382 8.44824 4.72708C8.44521 4.7233 8.43712 4.71301 8.44445 4.66131C8.46922 4.49476 8.48634 4.32701 8.49573 4.15866C8.50988 3.88745 8.52074 3.48197 8.45531 3.08705C8.44571 3.01162 8.43119 2.937 8.41186 2.86375C8.34289 2.59199 8.23224 2.35975 8.07839 2.16811C8.05187 2.13698 7.40817 1.41021 5.53949 1.26134C5.28106 1.24077 5.02565 1.25187 4.77403 1.26567C4.69962 1.26744 4.62557 1.27724 4.55299 1.2949C4.35998 1.34823 4.30844 1.47923 4.29505 1.55259C4.27257 1.67439 4.31198 1.76859 4.338 1.83138C4.34179 1.84032 4.34659 1.85141 4.33825 1.88065C4.29505 1.95265 4.22659 2.01761 4.15712 2.07905C4.13691 2.09719 3.66854 2.53027 3.64277 3.09572C3.5733 3.52582 3.57835 4.19575 3.66045 4.65887C3.66551 4.68459 3.67233 4.72248 3.66096 4.7482C3.57254 4.83292 3.4725 4.92901 3.47275 5.14826C3.47376 5.17045 3.50231 5.69394 3.80875 6.15436C3.87948 6.26101 3.97169 6.36982 4.06895 6.48486L4.06946 6.48513C4.37893 6.85054 4.76418 7.30528 4.82936 8.07455C4.85487 8.3777 4.84149 8.49058 4.83618 8.52062C4.82885 8.53509 4.82316 8.55044 4.81925 8.56636C4.819 8.56799 4.76115 8.7285 4.09927 8.91012C3.7173 9.01488 3.34139 9.06847 3.33002 9.06982C2.84144 9.15834 2.42839 9.31506 2.10225 9.53566C1.8332 9.71782 1.62226 9.94357 1.47574 10.2061C1.2413 10.6257 1.24761 11.0079 1.2509 11.0777V11.3275H1.25115Z" stroke="#7F9E23" stroke-linejoin="round"/>
</g>
<defs>
<clipPath id="clip0">
<rect width="12" height="12" fill="white"/>
</clipPath>
</defs>
</svg>
