<svg width="182" height="181" viewBox="0 0 182 181" fill="none" xmlns="http://www.w3.org/2000/svg">
<path d="M87.3226 15.384C86.8026 11.1583 86.3372 6.93784 85.9138 2.70441" stroke="#473317" stroke-width="3" stroke-linecap="round"/>
<path d="M128.179 2C127.786 3.97991 125.361 15.796 125.361 15.384" stroke="#473317" stroke-width="3" stroke-linecap="round"/>
<path d="M169.74 23.1326C165.822 26.4723 161.942 29.432 157.765 32.29" stroke="#473317" stroke-width="3" stroke-linecap="round"/>
<path d="M58.601 60.2754C55.493 66.391 54.312 70.1959 51.7982 76.5717C51.0646 78.8348 50.9299 81.032 51.1819 83.3882C51.2608 84.1262 51.5159 85.2555 51.9749 85.8571C52.1955 86.1462 52.9451 88.3344 52.9283 88.6662C52.8819 89.5847 53.9185 91.1638 54.2805 92.0239C55.2242 94.266 56.3243 96.443 57.5195 98.5563C58.9602 101.104 60.8163 103.083 62.6737 105.346C64.6581 107.764 67.0385 109.72 69.0936 112.036C71.8235 115.113 75.1231 117.403 78.0698 120.239C80.3625 122.447 83.0517 124.38 85.9151 125.782C93.486 129.49 101.639 132.635 110.141 133.04C114.069 133.227 118.351 133.056 122.147 132.01C126.06 130.932 129.515 128.843 133.036 126.849C139.085 123.422 143.62 118.07 147.2 112.247C148.815 109.62 150.405 106.694 151.303 103.735C152.092 101.133 152.021 98.739 152.512 96.11C153.165 92.606 153.222 89.1735 152.872 85.6219C152.477 81.6309 150.949 77.9308 150.458 74.0373C150.153 71.6172 149.08 69.2007 148.276 66.9234C147.441 64.5572 146.527 62.3007 145.318 60.0839C142.672 55.2302 137.311 50.5325 132.608 47.7226C126.212 43.9019 119.542 40.4452 112.078 39.3045C107.784 38.6484 103.15 37.7796 98.7918 38.111C94.2584 38.4557 89.8903 39.4092 85.5585 40.7116C78.2757 42.9013 71.053 46.5665 65.6701 52.0391C63.0528 54.7001 60.3375 56.8585 58.601 60.2754Z" fill="url(#paint0_linear_410:471)" stroke="#445513" stroke-linecap="round"/>
<path d="M1.73642 170.451C1.73642 145.583 -2.41537 120.849 8.99709 97.3294C14.9495 85.0626 23.9907 70.5316 40.0697 67.1617C44.1096 66.3151 50.6363 64.592 54.7473 66.2414C58.5213 67.7555 60.6489 70.8401 63.0229 73.6043C67.6316 78.9704 72.7038 90.2529 72.7038 96.9545V103.874C72.7038 104.122 72.698 104.506 72.6885 104.955C73.4592 98.6478 76.5567 92.8503 81.2917 88.0576C87.5123 81.7612 97.5605 79.2365 105.338 85.0578C111.508 89.6765 117.514 99.9273 117.673 107.147C117.808 113.247 117.952 108.693 120.172 105.272C124.416 98.7315 128.267 92.5358 137.582 91.2618L138.015 91.2025C145.331 90.2007 150.533 89.4885 157.724 91.4322C166.088 93.6928 173.279 102.041 177.32 108.51C181.893 115.831 180.911 123.954 180.911 132.031C180.911 139.198 181.067 145.626 180.365 153.711C179.663 161.795 179 167.553 178 174.553C174 175.053 174.5 174.553 165.141 176.379C154.615 176.936 144.522 179.481 133.834 179.481H109.866C100.78 179.481 91.1136 179.927 82.1505 178.595C73.5325 177.314 63.9866 175.959 55.2157 175.8C41.7437 175.554 29.6334 176.494 17 173.553C14.721 173.044 1.85281 170.886 1.73642 170.451Z" fill="#7F9E23"/>
<path d="M1.73642 170.451C1.73642 145.583 -2.41537 120.849 8.99709 97.3294C14.9495 85.0626 23.9907 70.5316 40.0697 67.1617C44.1096 66.3151 50.6363 64.592 54.7473 66.2414C58.5213 67.7555 60.6489 70.8402 63.0229 73.6043C67.6316 78.9704 72.7038 90.2529 72.7038 96.9545C72.7038 99.2611 72.7038 101.568 72.7038 103.874C72.7038 105.35 72.5 111.614 72.5 108.053C72.5 100.55 75.7908 93.6255 81.2917 88.0576C87.5123 81.7612 97.5605 79.2365 105.338 85.0578C111.508 89.6765 117.514 99.9273 117.673 107.147C117.808 113.247 117.952 108.693 120.172 105.272C124.416 98.7315 128.267 92.5358 137.582 91.2618C145.128 90.2296 150.392 89.4503 157.724 91.4322C166.088 93.6928 173.279 102.041 177.32 108.51C181.893 115.831 180.911 123.954 180.911 132.031C180.911 139.198 181.067 145.626 180.365 153.711C179.663 161.795 179 167.553 178 174.553C174 175.053 174.5 174.553 165.141 176.379C154.615 176.936 144.522 179.481 133.834 179.481C125.845 179.481 117.855 179.481 109.866 179.481C100.78 179.481 91.1137 179.927 82.1505 178.595C73.5325 177.314 63.9866 175.959 55.2157 175.8C41.7437 175.554 29.6334 176.494 17 173.553C14.721 173.044 1.85281 170.886 1.73642 170.451Z" stroke="#445513" stroke-linecap="round"/>
<g filter="url(#filter0_d_410:471)">
<path d="M42.7876 60.8583C38.5 63.0527 37.2886 64.5527 35.1955 68.2156C34.5797 69.2931 29.5 79.5527 35.8608 80.1125C37.5 80.5527 39.3438 78.195 39.3438 77.4513C39.5 77.0527 39.3399 81.1507 40.6743 81.9909C45.5371 85.0527 47.0551 78.2981 48.5795 76.3164C49 74.5527 48.893 76.356 50.3014 77.7644C51.1479 78.6109 53.7957 78.9033 54.9193 78.7428C63.0754 77.5776 64.6463 63.1546 55.8976 61.2105C51.6829 60.2739 46.9769 58.3757 42.7876 60.8583Z" fill="#F4EB0B"/>
<path d="M42.7876 60.8583C38.5 63.0527 37.2886 64.5527 35.1955 68.2156C34.5797 69.2931 29.5 79.5527 35.8608 80.1125C37.5 80.5527 39.3438 78.195 39.3438 77.4513C39.5 77.0527 39.3399 81.1507 40.6743 81.9909C45.5371 85.0527 47.0551 78.2981 48.5795 76.3164C49 74.5527 48.893 76.356 50.3014 77.7644C51.1479 78.6109 53.7957 78.9033 54.9193 78.7428C63.0754 77.5776 64.6463 63.1546 55.8976 61.2105C51.6829 60.2739 46.9769 58.3757 42.7876 60.8583Z" stroke="#445513" stroke-linecap="round"/>
</g>
<g filter="url(#filter1_d_410:471)">
<path d="M147.487 87.5677C140.15 89.9255 139.811 97.5527 142.12 103.292C142.497 104.23 142.497 104.23 143.138 105.006C146.376 107.967 148.885 105.256 149.827 101.944C150.295 100.299 151.078 105.529 152.633 106.241C153.698 106.73 155.888 107.65 156.735 106.554C159 105.006 158.315 101.82 159.419 101.944C160 102.553 161.37 103.908 163.041 102.977C169.224 99.532 165.96 88.1018 159.419 86.2417C154.816 84.9324 152.043 86.1038 147.487 87.5677Z" fill="#F4EB0B"/>
<path d="M147.487 87.5677C140.15 89.9255 139.811 97.5527 142.12 103.292C142.497 104.23 142.497 104.23 143.138 105.006C146.376 107.967 148.885 105.256 149.827 101.944C150.295 100.299 151.078 105.529 152.633 106.241C153.698 106.73 155.888 107.65 156.735 106.554C159 105.006 158.315 101.82 159.419 101.944C160 102.553 161.37 103.908 163.041 102.977C169.224 99.532 165.96 88.1018 159.419 86.2417C154.816 84.9324 152.043 86.1038 147.487 87.5677Z" stroke="#445513" stroke-linecap="round"/>
</g>
<path d="M83.0596 55.5574C83.3777 55.3752 84.7297 54.2093 85.0039 55.1003C85.103 55.4225 85.0066 55.7493 84.7862 55.9781C84.3527 56.4283 83.3208 56.5525 83.3208 55.6879C83.3208 54.2357 85.4371 53.739 86.0485 55.1148C86.8423 56.9008 83.961 57.1138 83.3498 55.7895C82.6215 54.2115 83.8202 53.1901 85.4391 53.8018C86.1409 54.0669 86.9563 54.5839 86.9771 55.4558C87.0099 56.8333 85.6013 57.1477 84.3872 57.0518C81.672 56.8374 83.5126 54.0965 85.0837 53.6131C86.3812 53.2139 87.3171 54.8912 86.6434 55.7895C85.961 56.6994 83.7125 57.0509 83.7125 55.4268" stroke="black" stroke-width="3" stroke-linecap="round"/>
<path d="M121 60.237C122.196 59.7883 123.924 59.0354 123.656 60.7922C123.541 61.55 121.936 60.7824 121.773 60.2679C121.307 58.7945 124.109 58.9233 124.388 60.2987C124.622 61.4496 121.603 61.8736 121.444 60.6842C121.276 59.4264 121.578 58.9476 122.924 58.5869C123.937 58.3157 125.13 59.7222 124.989 60.584C124.775 61.8858 122.226 61.8318 121.773 60.6842C121.533 60.0777 121.426 59.6246 122.036 59.1344C122.433 58.8151 123.099 58.3554 123.59 58.7103C124.039 59.0335 124.524 58.9354 124.553 59.651C124.587 60.526 124.64 60.6534 123.664 60.6534" stroke="black" stroke-width="3" stroke-linecap="round"/>
<defs>
<filter id="filter0_d_410:471" x="28.1926" y="59.131" width="38.0906" height="32.1444" filterUnits="userSpaceOnUse" color-interpolation-filters="sRGB">
<feFlood flood-opacity="0" result="BackgroundImageFix"/>
<feColorMatrix in="SourceAlpha" type="matrix" values="0 0 0 0 0 0 0 0 0 0 0 0 0 0 0 0 0 0 127 0" result="hardAlpha"/>
<feOffset dy="4"/>
<feGaussianBlur stdDeviation="2"/>
<feComposite in2="hardAlpha" operator="out"/>
<feColorMatrix type="matrix" values="0 0 0 0 0 0 0 0 0 0 0 0 0 0 0 0 0 0 0.25 0"/>
<feBlend mode="normal" in2="BackgroundImageFix" result="effect1_dropShadow_410:471"/>
<feBlend mode="normal" in="SourceGraphic" in2="effect1_dropShadow_410:471" result="shape"/>
</filter>
<filter id="filter1_d_410:471" x="136.354" y="85.1745" width="34.4816" height="30.3937" filterUnits="userSpaceOnUse" color-interpolation-filters="sRGB">
<feFlood flood-opacity="0" result="BackgroundImageFix"/>
<feColorMatrix in="SourceAlpha" type="matrix" values="0 0 0 0 0 0 0 0 0 0 0 0 0 0 0 0 0 0 127 0" result="hardAlpha"/>
<feOffset dy="4"/>
<feGaussianBlur stdDeviation="2"/>
<feComposite in2="hardAlpha" operator="out"/>
<feColorMatrix type="matrix" values="0 0 0 0 0 0 0 0 0 0 0 0 0 0 0 0 0 0 0.25 0"/>
<feBlend mode="normal" in2="BackgroundImageFix" result="effect1_dropShadow_410:471"/>
<feBlend mode="normal" in="SourceGraphic" in2="effect1_dropShadow_410:471" result="shape"/>
</filter>
<linearGradient id="paint0_linear_410:471" x1="124.161" y1="43.138" x2="84.12" y2="124.903" gradientUnits="userSpaceOnUse">
<stop stop-color="#F4EB0B"/>
<stop offset="1" stop-color="#F4EB0B" stop-opacity="0"/>
</linearGradient>
</defs>
</svg>
