<svg width="20" height="20" viewBox="0 0 20 20" fill="none" xmlns="http://www.w3.org/2000/svg">
<path d="M0.5 10.625C0.5 10.4464 0.536155 10.2692 0.606775 10.1034C0.677409 9.93757 0.781328 9.78596 0.9133 9.65762C1.0453 9.52926 1.20276 9.42671 1.37704 9.35651C1.55133 9.2863 1.73861 9.25 1.92805 9.25C2.11749 9.25 2.30476 9.2863 2.47906 9.35651C2.65333 9.42671 2.81079 9.52926 2.94279 9.65762C3.07476 9.78596 3.17868 9.93757 3.24932 10.1034C3.31994 10.2692 3.35609 10.4464 3.35609 10.625V18.125C3.35609 18.4851 3.20913 18.8334 2.94279 19.0924C2.67599 19.3518 2.31122 19.5 1.92805 19.5C1.54487 19.5 1.18011 19.3518 0.9133 19.0924C0.646966 18.8334 0.5 18.4851 0.5 18.125V10.625Z" fill="#7F9E23" stroke="#7F9E23"/>
<path d="M5.6416 17.204V17.2037V10.4163C5.6416 9.44614 5.96505 8.50062 6.56577 7.72167C6.56579 7.72165 6.56581 7.72162 6.56582 7.7216L8.36528 5.38917L8.36533 5.3891C9.09953 4.4371 9.49769 3.27731 9.49769 2.08375V1.25C9.49769 1.05566 9.57695 0.866362 9.72276 0.724567C9.86904 0.58231 10.0703 0.5 10.2831 0.5C10.8367 0.5 11.3649 0.714006 11.7522 1.09068C12.1391 1.4669 12.3538 1.97414 12.3538 2.5V7.5V8H12.8538H17.4296C17.4296 8 17.4297 8 17.4297 8C17.7382 8.00004 18.0424 8.06666 18.3202 8.19455C18.598 8.32243 18.842 8.50811 19.0352 8.73728C19.2283 8.9664 19.366 9.23337 19.4393 9.51866C19.5125 9.8039 19.5197 10.1012 19.4605 10.3893L17.9181 17.8893L17.9181 17.8893C17.8255 18.3397 17.5748 18.7478 17.2049 19.0426C16.8347 19.3376 16.3687 19.5002 15.8862 19.5H15.886H8.92458C8.92453 19.5 8.92448 19.5 8.92443 19.5C8.2024 19.4998 7.49085 19.3362 6.84613 19.0228C6.8461 19.0228 6.84608 19.0228 6.84605 19.0228L6.78186 18.9916L6.78175 18.9915C6.43646 18.8237 6.14806 18.5667 5.94741 18.2509C5.74685 17.9352 5.64143 17.5727 5.6416 17.204Z" fill="#7F9E23" fill-opacity="0.01" stroke="#7F9E23"/>
</svg>
