<svg width="32" height="32" viewBox="0 0 32 32" fill="none" xmlns="http://www.w3.org/2000/svg">
<path d="M22.6107 5.34372L26.2941 9.02198L22.6107 5.34372ZM24.9794 2.10331L15.0195 12.0539C14.5049 12.5673 14.1539 13.2215 14.0108 13.9339L13.0908 18.5347L17.696 17.6139C18.409 17.4714 19.0629 17.1221 19.5777 16.6078L29.5376 6.65726C29.8369 6.35825 30.0743 6.00326 30.2363 5.61258C30.3982 5.22189 30.4816 4.80316 30.4816 4.38029C30.4816 3.95741 30.3982 3.53868 30.2363 3.148C30.0743 2.75731 29.8369 2.40233 29.5376 2.10331C29.2383 1.80429 28.883 1.5671 28.4919 1.40527C28.1009 1.24345 27.6817 1.16016 27.2585 1.16016C26.8352 1.16016 26.4161 1.24345 26.025 1.40527C25.634 1.5671 25.2787 1.80429 24.9794 2.10331V2.10331Z" stroke="#7F9E23" stroke-width="1.5" stroke-linecap="round" stroke-linejoin="round"/>
<path d="M27.0036 22.0099V27.2223C27.0036 28.144 26.6372 29.0278 25.9849 29.6795C25.3326 30.3312 24.4479 30.6973 23.5254 30.6973H4.39521C3.47273 30.6973 2.58803 30.3312 1.93574 29.6795C1.28345 29.0278 0.916992 28.144 0.916992 27.2223V8.10998C0.916992 7.18836 1.28345 6.30449 1.93574 5.65281C2.58803 5.00112 3.47273 4.63501 4.39521 4.63501H9.61253" stroke="#7F9E23" stroke-width="1.5" stroke-linecap="round" stroke-linejoin="round"/>
</svg>
