<svg width="184" height="182" viewBox="0 0 184 182" fill="none" xmlns="http://www.w3.org/2000/svg">
<path d="M88.3226 15.384C87.8026 11.1583 87.3372 6.93784 86.9138 2.70441" stroke="black" stroke-width="3" stroke-linecap="round"/>
<path d="M129.179 2C128.786 3.97991 126.361 15.796 126.361 15.384" stroke="black" stroke-width="3" stroke-linecap="round"/>
<path d="M170.74 23.1326C166.822 26.4723 162.942 29.432 158.765 32.29" stroke="black" stroke-width="3" stroke-linecap="round"/>
<path d="M59.601 60.2754C56.493 66.391 55.312 70.1959 52.7982 76.5717C52.0646 78.8348 51.9299 81.032 52.1819 83.3882C52.2608 84.1262 52.5159 85.2555 52.9749 85.8571C53.1955 86.1462 53.9451 88.3344 53.9283 88.6662C53.8819 89.5847 54.9185 91.1638 55.2805 92.0239C56.2242 94.266 57.3243 96.443 58.5195 98.5563C59.9602 101.104 61.8163 103.083 63.6737 105.346C65.6581 107.764 68.0385 109.72 70.0936 112.036C72.8235 115.113 76.1231 117.403 79.0698 120.239C81.3625 122.447 84.0517 124.38 86.9151 125.782C94.486 129.49 102.639 132.635 111.141 133.04C115.069 133.227 119.351 133.056 123.147 132.01C127.06 130.932 130.515 128.843 134.036 126.849C140.085 123.422 144.62 118.07 148.2 112.247C149.815 109.62 151.405 106.694 152.303 103.735C153.092 101.133 153.021 98.739 153.512 96.11C154.165 92.606 154.222 89.1735 153.872 85.6219C153.477 81.6309 151.949 77.9308 151.458 74.0373C151.153 71.6172 150.08 69.2007 149.276 66.9234C148.441 64.5572 147.527 62.3007 146.318 60.0839C143.672 55.2302 138.311 50.5325 133.608 47.7226C127.212 43.9019 120.542 40.4452 113.078 39.3045C108.784 38.6484 104.15 37.7796 99.7918 38.111C95.2584 38.4557 90.8903 39.4092 86.5585 40.7116C79.2757 42.9013 72.053 46.5665 66.6701 52.0391C64.0528 54.7001 61.3375 56.8585 59.601 60.2754Z" fill="#F4EB0B" stroke="black" stroke-width="3" stroke-linecap="round"/>
<path d="M2.73642 170.451C2.73642 145.583 -1.41537 120.849 9.99709 97.3294C15.9495 85.0626 24.9907 70.5316 41.0697 67.1617C45.1096 66.3151 51.6363 64.592 55.7473 66.2414C59.5213 67.7555 61.6489 70.8401 64.0229 73.6043C68.6316 78.9704 73.7038 90.2529 73.7038 96.9545V103.874C73.7038 104.122 73.698 104.506 73.6885 104.955C74.4592 98.6478 77.5567 92.8503 82.2917 88.0576C88.5123 81.7612 98.5605 79.2365 106.338 85.0578C112.508 89.6765 118.514 99.9273 118.673 107.147C118.808 113.247 118.952 108.693 121.172 105.272C125.416 98.7315 129.267 92.5358 138.582 91.2618L139.015 91.2025C146.331 90.2007 151.533 89.4885 158.724 91.4322C167.088 93.6928 174.279 102.041 178.32 108.51C182.893 115.831 181.911 123.954 181.911 132.031C181.911 139.198 182.067 145.626 181.365 153.711C180.663 161.795 179.407 162.176 179.101 168.812C178.41 176.983 175.417 176.548 166.141 176.379C155.615 176.936 145.522 179.481 134.834 179.481H110.866C101.78 179.481 92.1136 179.927 83.1505 178.595C74.5325 177.314 64.9866 175.959 56.2157 175.8C42.7437 175.554 29.7351 173.901 17.1017 170.959C14.8226 170.451 2.85281 170.886 2.73642 170.451Z" fill="#7F9E23"/>
<path d="M2.73642 170.451C2.73642 145.583 -1.41537 120.849 9.99709 97.3294C15.9495 85.0626 24.9907 70.5316 41.0697 67.1617C45.1096 66.3151 51.6363 64.592 55.7473 66.2414C59.5213 67.7555 61.6489 70.8402 64.0229 73.6043C68.6316 78.9704 73.7038 90.2529 73.7038 96.9545C73.7038 99.2611 73.7038 101.568 73.7038 103.874C73.7038 105.35 73.5 111.614 73.5 108.053C73.5 100.55 76.7908 93.6255 82.2917 88.0576C88.5123 81.7612 98.5605 79.2365 106.338 85.0578C112.508 89.6765 118.514 99.9273 118.673 107.147C118.808 113.247 118.952 108.693 121.172 105.272C125.416 98.7315 129.267 92.5358 138.582 91.2618C146.128 90.2296 151.392 89.4503 158.724 91.4322C167.088 93.6928 174.279 102.041 178.32 108.51C182.893 115.831 181.911 123.954 181.911 132.031C181.911 139.198 182.067 145.626 181.365 153.711C180.663 161.795 179.407 162.176 179.101 168.812C178.41 176.983 175.417 176.548 166.141 176.379C155.615 176.936 145.522 179.481 134.834 179.481C126.845 179.481 118.855 179.481 110.866 179.481C101.78 179.481 92.1137 179.927 83.1505 178.595C74.5325 177.314 64.9866 175.959 56.2157 175.8C42.7437 175.554 29.7351 173.901 17.1017 170.959C14.8226 170.451 2.85281 170.886 2.73642 170.451Z" stroke="black" stroke-width="3" stroke-linecap="round"/>
<path d="M43.7876 60.8583C39.5 63.0527 38.2886 64.5527 36.1955 68.2156C35.5797 69.2931 30.5 79.5527 36.8608 80.1125C38.5 80.5527 40.3438 78.195 40.3438 77.4513C40.5 77.0527 40.3399 81.1507 41.6743 81.9909C46.5371 85.0527 48.0551 78.2981 49.5795 76.3164C50 74.5527 49.893 76.356 51.3014 77.7644C52.1479 78.6109 54.7957 78.9033 55.9193 78.7428C64.0754 77.5776 65.6463 63.1546 56.8976 61.2105C52.6829 60.2739 47.9769 58.3757 43.7876 60.8583Z" fill="#F4EB0B" stroke="black" stroke-width="3" stroke-linecap="round"/>
<path d="M148.487 87.5677C141.15 89.9255 140.811 97.5527 143.12 103.292C143.497 104.23 143.497 104.23 144.138 105.006C147.376 107.967 149.885 105.256 150.827 101.944C151.295 100.299 152.078 105.529 153.633 106.241C154.698 106.73 156.888 107.65 157.735 106.554C160 105.006 159.315 101.82 160.419 101.944C161 102.553 162.37 103.908 164.041 102.977C170.224 99.532 166.96 88.1018 160.419 86.2417C155.816 84.9324 153.043 86.1038 148.487 87.5677Z" fill="#F4EB0B" stroke="black" stroke-width="3" stroke-linecap="round"/>
<path d="M84.0596 55.5574C84.3777 55.3752 85.7297 54.2093 86.0039 55.1003C86.103 55.4225 86.0066 55.7493 85.7862 55.9781C85.3527 56.4283 84.3208 56.5525 84.3208 55.6879C84.3208 54.2357 86.4371 53.739 87.0485 55.1148C87.8423 56.9008 84.961 57.1138 84.3498 55.7895C83.6215 54.2115 84.8202 53.1901 86.4391 53.8018C87.1409 54.0669 87.9563 54.5839 87.9771 55.4558C88.0099 56.8333 86.6013 57.1477 85.3872 57.0518C82.672 56.8374 84.5126 54.0965 86.0837 53.6131C87.3812 53.2139 88.3171 54.8912 87.6434 55.7895C86.961 56.6994 84.7125 57.0509 84.7125 55.4268" stroke="black" stroke-width="3" stroke-linecap="round"/>
<path d="M122 60.237C123.196 59.7883 124.924 59.0354 124.656 60.7922C124.541 61.55 122.936 60.7824 122.773 60.2679C122.307 58.7945 125.109 58.9233 125.388 60.2987C125.622 61.4496 122.603 61.8736 122.444 60.6842C122.276 59.4264 122.578 58.9476 123.924 58.5869C124.937 58.3157 126.13 59.7222 125.989 60.584C125.775 61.8858 123.226 61.8318 122.773 60.6842C122.533 60.0777 122.426 59.6246 123.036 59.1344C123.433 58.8151 124.099 58.3554 124.59 58.7103C125.039 59.0335 125.524 58.9354 125.553 59.651C125.587 60.526 125.64 60.6534 124.664 60.6534" stroke="black" stroke-width="3" stroke-linecap="round"/>
</svg>
