<svg width="17" height="17" viewBox="0 0 17 17" fill="none" xmlns="http://www.w3.org/2000/svg">
<path d="M14.8434 2.32611C14.4768 1.90569 14.0417 1.57219 13.5627 1.34465C13.0837 1.11711 12.5704 1 12.0519 1C11.5335 1 11.0201 1.11711 10.5411 1.34465C10.0621 1.57219 9.62698 1.90569 9.26046 2.32611L8.49981 3.19821L7.73916 2.32611C6.99882 1.4773 5.9947 1.00044 4.94771 1.00044C3.90071 1.00044 2.89659 1.4773 2.15626 2.32611C1.41592 3.17492 1 4.32616 1 5.52656C1 6.72696 1.41592 7.87819 2.15626 8.727L2.91691 9.59911L8.49981 16L14.0827 9.59911L14.8434 8.727C15.21 8.30679 15.5009 7.80785 15.6994 7.25871C15.8979 6.70957 16 6.12097 16 5.52656C16 4.93214 15.8979 4.34355 15.6994 3.7944C15.5009 3.24526 15.21 2.74633 14.8434 2.32611V2.32611Z" stroke="black" stroke-linecap="round" stroke-linejoin="round"/>
</svg>
