<svg width="14" height="14" viewBox="0 0 14 14" fill="none" xmlns="http://www.w3.org/2000/svg">
<path d="M7.4375 12.25V7.4375H7.875C8.10699 7.43727 8.32942 7.34501 8.49346 7.18096C8.65751 7.01692 8.74977 6.79449 8.75 6.5625V4.8125C8.74977 4.58051 8.65751 4.35808 8.49346 4.19404C8.32942 4.02999 8.10699 3.93773 7.875 3.9375H6.125C5.89301 3.93773 5.67058 4.02999 5.50654 4.19404C5.34249 4.35808 5.25023 4.58051 5.25 4.8125V6.5625C5.25023 6.79449 5.34249 7.01692 5.50654 7.18096C5.67058 7.34501 5.89301 7.43727 6.125 7.4375H6.5625V12.25H0.875V13.125H13.125V12.25H7.4375ZM6.125 4.8125H7.875L7.87588 6.5625H6.125V4.8125Z" fill="#815F30"/>
<path d="M4.0826 7.97015C3.76151 7.68289 3.50464 7.33112 3.32878 6.93782C3.15291 6.54452 3.06201 6.11854 3.06201 5.68771C3.06201 5.25688 3.15291 4.8309 3.32878 4.4376C3.50464 4.0443 3.76151 3.69253 4.0826 3.40527L4.66623 4.05715C4.43687 4.26233 4.25338 4.5136 4.12776 4.79453C4.00213 5.07547 3.9372 5.37975 3.9372 5.68749C3.9372 5.99523 4.00213 6.29952 4.12776 6.58045C4.25338 6.86139 4.43687 7.11265 4.66623 7.31783L4.0826 7.97015Z" fill="#815F30"/>
<path d="M9.91663 7.97015L9.33301 7.31827C9.56244 7.11309 9.74599 6.86179 9.87166 6.58082C9.99733 6.29984 10.0623 5.99551 10.0623 5.68771C10.0623 5.37991 9.99733 5.07558 9.87166 4.7946C9.74599 4.51363 9.56244 4.26233 9.33301 4.05715L9.91663 3.40527C10.2377 3.69253 10.4946 4.0443 10.6705 4.4376C10.8463 4.8309 10.9372 5.25688 10.9372 5.68771C10.9372 6.11854 10.8463 6.54452 10.6705 6.93782C10.4946 7.33112 10.2377 7.68289 9.91663 7.97015Z" fill="#815F30"/>
<path d="M2.79991 9.5374C2.20237 9.08902 1.7174 8.50771 1.38339 7.83949C1.04938 7.17126 0.875488 6.43446 0.875488 5.6874C0.875488 4.94035 1.04938 4.20354 1.38339 3.53532C1.7174 2.86709 2.20237 2.28578 2.79991 1.8374L3.3249 2.5374C2.8358 2.90416 2.43881 3.37977 2.16539 3.92655C1.89196 4.47334 1.74961 5.07628 1.74961 5.68762C1.74961 6.29896 1.89196 6.9019 2.16539 7.44869C2.43881 7.99547 2.8358 8.47108 3.3249 8.83784L2.79991 9.5374Z" fill="#815F30"/>
<path d="M11.1998 9.53735L10.6748 8.83735C11.1638 8.47054 11.5607 7.99491 11.8341 7.44814C12.1075 6.90136 12.2498 6.29844 12.2498 5.68713C12.2498 5.07583 12.1075 4.47291 11.8341 3.92613C11.5607 3.37935 11.1638 2.90373 10.6748 2.53691L11.1998 1.83691C11.7974 2.28528 12.2825 2.86662 12.6165 3.53489C12.9506 4.20316 13.1245 4.94002 13.1245 5.68713C13.1245 6.43425 12.9506 7.17111 12.6165 7.83938C12.2825 8.50765 11.7974 9.08898 11.1998 9.53735Z" fill="#815F30"/>
</svg>
